<mxfile host="app.diagrams.net" agent="Mozilla/5.0 (Windows NT 10.0; Win64; x64) AppleWebKit/537.36 (KHTML, like Gecko) Chrome/138.0.0.0 Safari/537.36" version="28.0.6">
  <diagram name="Page-1" id="Y8S7VNOabbUw6iAbxDax">
    <mxGraphModel dx="1892" dy="1661" grid="1" gridSize="10" guides="1" tooltips="1" connect="1" arrows="1" fold="1" page="1" pageScale="1" pageWidth="850" pageHeight="1100" math="0" shadow="0">
      <root>
        <mxCell id="0" />
        <mxCell id="1" parent="0" />
        <mxCell id="fSjYENabkBev0ntUEMhD-18" value="" style="rounded=0;whiteSpace=wrap;html=1;fillColor=#d5e8d4;strokeColor=#82b366;" parent="1" vertex="1">
          <mxGeometry x="160" y="605" width="260" height="150" as="geometry" />
        </mxCell>
        <mxCell id="fSjYENabkBev0ntUEMhD-10" value="" style="rounded=0;whiteSpace=wrap;html=1;fillColor=#f5f5f5;gradientColor=#b3b3b3;strokeColor=#666666;" parent="1" vertex="1">
          <mxGeometry x="-10" y="-60" width="520" height="360" as="geometry" />
        </mxCell>
        <mxCell id="fSjYENabkBev0ntUEMhD-5" style="edgeStyle=orthogonalEdgeStyle;rounded=0;orthogonalLoop=1;jettySize=auto;html=1;entryX=0;entryY=0.5;entryDx=0;entryDy=0;" parent="1" source="fSjYENabkBev0ntUEMhD-1" target="fSjYENabkBev0ntUEMhD-2" edge="1">
          <mxGeometry relative="1" as="geometry" />
        </mxCell>
        <mxCell id="fSjYENabkBev0ntUEMhD-6" style="edgeStyle=orthogonalEdgeStyle;rounded=0;orthogonalLoop=1;jettySize=auto;html=1;entryX=0;entryY=0.5;entryDx=0;entryDy=0;" parent="1" source="fSjYENabkBev0ntUEMhD-1" target="fSjYENabkBev0ntUEMhD-3" edge="1">
          <mxGeometry relative="1" as="geometry" />
        </mxCell>
        <mxCell id="fSjYENabkBev0ntUEMhD-7" style="edgeStyle=orthogonalEdgeStyle;rounded=0;orthogonalLoop=1;jettySize=auto;html=1;entryX=0;entryY=0.5;entryDx=0;entryDy=0;" parent="1" source="fSjYENabkBev0ntUEMhD-1" target="fSjYENabkBev0ntUEMhD-4" edge="1">
          <mxGeometry relative="1" as="geometry" />
        </mxCell>
        <mxCell id="fSjYENabkBev0ntUEMhD-1" value="&lt;b&gt;Master&lt;/b&gt;" style="rounded=0;whiteSpace=wrap;html=1;fillColor=#f8cecc;gradientColor=#ea6b66;strokeColor=#b85450;" parent="1" vertex="1">
          <mxGeometry x="40" y="80" width="120" height="60" as="geometry" />
        </mxCell>
        <mxCell id="fSjYENabkBev0ntUEMhD-2" value="&lt;b&gt;NODE&lt;/b&gt;" style="rounded=0;whiteSpace=wrap;html=1;fillColor=#dae8fc;gradientColor=#7ea6e0;strokeColor=#6c8ebf;" parent="1" vertex="1">
          <mxGeometry x="280" y="-20" width="120" height="60" as="geometry" />
        </mxCell>
        <mxCell id="fSjYENabkBev0ntUEMhD-3" value="&lt;b&gt;NODE&lt;/b&gt;" style="rounded=0;whiteSpace=wrap;html=1;fillColor=#d5e8d4;gradientColor=#97d077;strokeColor=#82b366;" parent="1" vertex="1">
          <mxGeometry x="280" y="80" width="120" height="60" as="geometry" />
        </mxCell>
        <mxCell id="fSjYENabkBev0ntUEMhD-4" value="&lt;b&gt;NODE&lt;/b&gt;" style="rounded=0;whiteSpace=wrap;html=1;fillColor=#fff2cc;gradientColor=#ffd966;strokeColor=#d6b656;" parent="1" vertex="1">
          <mxGeometry x="280" y="200" width="120" height="60" as="geometry" />
        </mxCell>
        <mxCell id="fSjYENabkBev0ntUEMhD-8" value="&lt;b&gt;Control plane&lt;/b&gt;" style="text;html=1;align=center;verticalAlign=middle;resizable=0;points=[];autosize=1;strokeColor=none;fillColor=none;" parent="1" vertex="1">
          <mxGeometry x="50" y="150" width="100" height="30" as="geometry" />
        </mxCell>
        <mxCell id="fSjYENabkBev0ntUEMhD-9" value="&lt;b&gt;Worker Nodes&lt;/b&gt;" style="text;html=1;align=center;verticalAlign=middle;resizable=0;points=[];autosize=1;strokeColor=none;fillColor=none;" parent="1" vertex="1">
          <mxGeometry x="290" y="-50" width="100" height="30" as="geometry" />
        </mxCell>
        <mxCell id="fSjYENabkBev0ntUEMhD-11" value="&lt;b&gt;K8 Cluster&lt;/b&gt;" style="text;html=1;align=center;verticalAlign=middle;resizable=0;points=[];autosize=1;strokeColor=none;fillColor=none;" parent="1" vertex="1">
          <mxGeometry x="160" y="-60" width="80" height="30" as="geometry" />
        </mxCell>
        <mxCell id="fSjYENabkBev0ntUEMhD-12" value="&lt;b&gt;Data&lt;/b&gt;" style="shape=cylinder3;whiteSpace=wrap;html=1;boundedLbl=1;backgroundOutline=1;size=15;fillColor=#d5e8d4;gradientColor=#97d077;strokeColor=#82b366;" parent="1" vertex="1">
          <mxGeometry x="660" y="60" width="70" height="100" as="geometry" />
        </mxCell>
        <mxCell id="fSjYENabkBev0ntUEMhD-13" style="edgeStyle=orthogonalEdgeStyle;rounded=0;orthogonalLoop=1;jettySize=auto;html=1;entryX=-0.011;entryY=0.61;entryDx=0;entryDy=0;entryPerimeter=0;" parent="1" source="fSjYENabkBev0ntUEMhD-10" target="fSjYENabkBev0ntUEMhD-12" edge="1">
          <mxGeometry relative="1" as="geometry" />
        </mxCell>
        <mxCell id="fSjYENabkBev0ntUEMhD-14" value="" style="sketch=0;aspect=fixed;pointerEvents=1;shadow=0;dashed=0;html=1;strokeColor=none;labelPosition=center;verticalLabelPosition=bottom;verticalAlign=top;align=center;fillColor=#00188D;shape=mxgraph.azure.laptop" parent="1" vertex="1">
          <mxGeometry x="-190" y="620" width="200" height="120" as="geometry" />
        </mxCell>
        <mxCell id="fSjYENabkBev0ntUEMhD-15" value="" style="shape=image;verticalLabelPosition=bottom;labelBackgroundColor=default;verticalAlign=top;aspect=fixed;imageAspect=0;image=data:image/png,iVBORw0KGgoAAAANSUhEUgAAAIQAAAB7CAYAAAC1gChrAAAAAXNSR0IArs4c6QAAAARnQU1BAACxjwv8YQUAAAAJcEhZcwAADsMAAA7DAcdvqGQAAEL6SURBVHhe7b1pkCXXdd/5u1tmvqW27uoVjb2xgyS4gIRIiaTERaIs2bIsybJmQrJHtifC4ZkIf50ZSfQHf/JEOGLsmNGMNXbItiSPRI0oyTIpUhR3CiJBgMS+Aw30gt6qa3lLZt7lzIebr7p6AbvQaBCMQf8rbtV7We9V5cv7z3PPPfd/zlUpJeEqrqKDPv/AVby1cZUQV3EO1NUh43VAJhA9MWmSLtG2IAGJ/E0BVoMWD5Lye5QGZYhoIpzThoAhAQpBIeS/gXQ/ZzjnyZXFVUK8LgREElEUKI1WJh8WMgEkAYIYlw+LQApoBVopULOenXV+3HyeEvnvdjwySqO1ymS4SogfTDRd3xvAIOjYgkTQOne25BckZVHKoEhIiihSRwYB6W7/mSmYvSdBQgMKpTRKmY5EVwnxA4tR1zcF4CSAn2SrYCwYR8QQMOjpCKMU2jowphs2NCklUhKUUiil0NJkQs16RBtQFpTJVkQgyVm+vRG4SojXgabzyh2ANCA+95QqGCXHyMMkQVhdwxlFrzeg1zdYk98nkvuflFAS6TtAdyZis1dUtkGi8QEa7+lVDmPeGEZcJcTrgQQIbbYKNjuLQZW8eKbmicOrPHdijdMTjy/34oqSQWnZOXDsX7RctwD7h7BowMQRpJZk50lKoyWhZ2OH5DFCROEj+AS9ovMn3gBcJcTrQb2ab3PrwFSMsTx3YsIDzx3jkUMneWllwlQsY7MTV/VZHFTsHPbYt1BwzYLhugXDgTnF3gEsFpq6cw5sZ3W0REgzR9OQMMRu5nJ1yPhBxPRMHuftgNVoeGElcP9TL/PdF45y6PQG46CwvSGjaUtR9ZlfWGRufoF+WTCwwmKl2LNQcGDHkF0LsG8AcxZKoCL/JLaQEiIaTAFvIBm4SojXidAAjrWgefZM4muPv8SDzx7h2PoEj8KVBc5a2o0TFL2K/uIe3PwyyfZpQoQk9Jxlaa7Hwnyf9+2E6xZgRw8WCxgosCmSQptnsMZhrL06y/iBhcDYw9MnWr7y2Et84TvP8sqooegPGAwKxE9ZPXUUUxbY3hzF3A7KhV1UC7twZQ+rFCq1iG8gNuybnuDahZKDB3Zx+7U7OLBgKQVIITuZ2sAb5DvMcJUQF8FGN4ZXBEgNKEtSJZMIKsFAe5AJJ+wCDx1q+ebDT/Pwc0c4NYnocgBaI6FF/BSVPFpB1BY3XGJu1zWUcztJ2qGUBkmo5LEIPmW/oW9geWi5YdeQO/ZqblqAXQbKNIJ2HcwQdEXSBUHlKCddPMQCmtBNX1yOeMq5Xay6MWf285zfXSXEhRjH7LiVSvJMAhDRBDH4KCCJXmn4s2c2ePCZwzxz6ChHz0xIro8r+8QYiG2NSS29whC8p03ghkss7L6WYm4nQRlQBiUJlQJWC0EVxJQgBRyJOSfsn1PcsGi4ccly3YJluW+yw6lAobogN4TgSSIopTHWombjynlk2IqrhNgu/JggmmQqlFE5zhCmANRScqrVPH285rPfepRDx0+xNvXU4rDlEDGG2DaIr7EE+qXD+5Y2ZkLM7z5AObd8DiFIHqe7oKU2KG1IAsHX2Fiz6BJ7FkquW55jz5LjpjlYstDTiYFqQbXgPaCJuiLYHq2Cfmc1mIXNt+BiZOAqIV4FcQ08jFUPXEGlwaSa5AMn24KHT8EffOVxDh19makPYApU2ce4ipgSydfgGyyR0uTO8KKwgyUWdh+gnJ8RYjZkBJyG4Bu0dpgi/1+foK0bJDRYlehZxaA03Heg4rp5zd6esL8XmHMt4HP365KaionAvAJ78X5/VVwlxMUQxzm0HDXTIFRVgVKa9QBfeuRlfu+LD3OKRWJsciRRW5JSRAEkYSRgkkfHFgktxuQQthsusrD7Wsr5ZTyZEFuHjBgjeaXDEJXLfoY23TKHoCSiUmRQH+faxYLbrlnirmtKrpvP1sCmNi+c6ew75JWQ7w2RHDqf4SohLoLJeELlFNrkjmhVxWml+a/fPMyXHnyaY2s1xWCOOmnibI0hJVJMGA2lAasSKraEpkYheNGbhCjmdxK4cMgIOJLSiEAUCPkPYxQURlEWlsIamrolhZZCCwuV5sCOPrftNRzcAftKmCeg4hj0IK+FvApEBBFB67OymKuEuAjGIc//Sx0QFEenhj968CXuf36FI6sTJHoq1TBOFaIdRmu0EiQlkIhF0BKRFIjBYyTluMRgiYU9nQ/RWQg4O2R43UOUQam8CiopQPQoiWgSVglGwbpUeByCxRpNv4D9fbhhLnDrvOfm+cC+PjhTorXdXDw7H1cJsU34vN5EXUeOro154NAZPv3NZznWOHTVo6AlrL2C1wOMLSlc7hglieBbYvBIjIgklFI4IkHUliFjJwF71oeQTIho+yRRZ4lAXtPQyObSOZIY0SPZPspZROUwhQsTdpop189FbtnhuHZHyZ0LhmGh0Vrn1dQtHc+rEOKqhO4icAJNgGdOt3zm4eP85688wYmpIolAbFEI05THdiMBFVt0avPjFIje40MgCmhTXBBrzg7/ufehiGAloGNDaqe0zRTfNMQoiHJg+0gxR3BzlNbQ04EqeargcTFbrfVW8dya5RuvaP7sBcXJaeqW2NNm518KVy3ExRAnPPr8aT793RN8/skVTgXL3MDRMy3R17QxUS3tQU9HSNsgEtEI1mhSFHxMiNK4sqLXH+I3TtL4dNaHmNtJ7KadWf8QcApi8CilMMairUVrSxCNT5omQpMSPsGewuPwSKhzACwlki7wtkejekxVSQv8y3c13LWU0FpjjEHrbC1muJiFeEsRInT3pdkiO0ASKEEkESRirOXPXrZ87eEXeOSZFzi+OsZVfYxWGA0ghJiom4ZeWWJ0F0CYmVsRUur0DDMzHSeEJLjB2SEjdiqqmQ9htMrvI78PNQs7dafZiWMEcFpQks95q6URNKJMdnRR7J5P/NyNFR/cpylsQCULAsEEQGOTJhE7QmQr9pYaMrJ8NStapfXZUUARI9RiWfWabzz2LF97/CUeefkUpzZqUFA4jUJyJFAbqrKiV1VobXJoWGlE6TxDIKuhRCkkCTGELIc7q46D7uesOwUQlXWZorLHkAnQmXnJklujBKsk/w6FKIMou9lQ+TwtCUfk5ZFwps1dvHXQElI+j7Nc2sRbihBaQKXsB5B81hoI1MpwbJz45rMn+dxDL/DEM8+zcmYFQSiKEqMNKJAkSBKUVvR6PdT5C00XucAX+gvnPb7Ie64URPL5nu86bIa1O2O0FW8pQhgEnTyamIfvFKlFserhoUMrfPrrj/HXh6YcO7VKDIGiKCmrcrMTRYQQAk3d4Ft/1lmb/b57lDlw8Z4Wya+7gAiz41ewJUkkSa92Kp3ZOJcRbylCpBjyfNw5sA5vHN7BXz1xlM/e/xiPnWg53A5JqqDq9aiqCoCmbbOzZw0iwnQ6YW19jRi7dUbJZMmPuxgCW451x7c+n5EoP+qolN96BZtskvbVkOMTZ0nxliJE23h8yrL4RjumzvDZb73Alx96iudPjWjtkOHyNbiywpi8LOS9p6lrRATnHGVVUhQlhXOd03fWQpyDTX5kImx9xSYVzjt+pSECcj4hzh/lZGZRMt5ShNBFRYtjI8HLY/j0N57lCw89y7OnRkySzVFCSSi9JbK39U7rJPPWWsqyyj7E5rXMt2W+vOde5LOvOGsJzh486zhe8a9LEU42v23iLUUIrKYBXjid+NIjL/Mn9z/Oo8fHnIkOXIUjkdZPbRG2gtIKozWSsv8QQkAQdJ6DZsxMNLPbcssvukObx7vfSUeM79lhrxOz//G9kGcyZ5+/pQhRt3B8He5/7AX+6Evf5rl1YV0PaU0fZQyVDujxSVQKpJiIKWbfwTlQEGIg+EAMMRNji0N5PjY50Jnki73q4ke/v5DzwlBvKUKc2Wj5wlf+is9/5X6Ojzypt5PYWyLaCkmRkpbrdvQwSmjqmnoyxbcerXKkbxbtA0gxfe+773v87ns5ed8vSPftfB9CjVsvpTJdlK1rOofzPIKXRD8agkArgNT0nYI6ZAWfLcApxgoGrHX/rKKlJHRRQSdgEhAT+Cn0ejkf7QohAoGITg0uArEiOc3EQC3gN6aY9RX+1V+d5tHDK5wZT2lFI7bcDObk5JiIJX/uc7qsk6uxeem672K7qxq7FUnBaYVRWccYQsDHgCoUURSmHLCwuJdqsANT9sE6giR88Hl62yX2XimciZ5/cJvh79xcMShylFJJIGjdRSojSJdG1rlM2mhzbnAiATEHNHQXHWt8/tyFBqcMMShwA9aD4bnTU759eMIza7AeFxj5imnQGKASsEEyGej+6UUWe14vAoIRhUtVzmhwGhT0BJjAM8em/OsvPcYDh05ycpoIukQbh5GESQGdIoiQRGei0GVmz9qWEHJGd0xA0ChtMZ1EXhmD6BypzEmYhtZ76tAiKMqyouz187qC0hht0M7msRwQyVlaV6ypLh66efKyJTR1IQN1cfYzg4KkA0l5SAEjiRIhqBWUHmF1xBjHhi64f7XlDw+d5veefoU/fuIEf/HIGl98quXp0yUbrUMlMGGMDStZkqZqWqcZVY50hQmhiZguZIzRiE5oVVNvjHjh0HH+8tHD/P6TG5ypL7wArwdKCVqDMRptLGiLT4o6JOqQ8EmBsSg0EiQLobXFupKEJpEXsgrjSDH7JG82VPJJBAgSESUYIyhJ6NStpihFo1dwukKnedaD5bkafvsbT3L/S8fZaDVDPUfPaxaN4UP33MIHbi24dQ4WOQNqkjvK9ZnqBWpgfov484ogQdKZ+yYl8A3BR+5/8Th//J0X+fOnzjAqDrCka6y6NCmUygtel4JW5qwFEUgp4ltPiAFEsMbgrKF0kcm0Adtnae8NLO6+hiYqlDF5cYxI00wwtuyEb1cGZ1Lgv7sDfu6mHgOXa1Qo8QSdVdkmeRB37pBBAN+2tKEhmUSalT5BICRoI1b3CPRZ15bHV+Ff/t5X+cpTJzneDtlQi5xOJSu64oXG8fvfeJTf/dLTPHS8YVQsIWYebD+PWVLTewM82dRk/0SlEeJXgYIvP73Ob37tRT793BrNYIkbliqcUTPX/3u2HBfY4lO9StMIxEBoW5rW0/iEl66ugzZoYzFFiQuRUiJWEr5paH1EGUsUYdrWtG1LYTs/7k2GSm0SIeJ1yIouQKPRKFRQEBVNqTkZ4K+eW+PPv/MCT5/ybLQlyvUxRYEYQXSiqSMutczJlOuGwoffcSMfvmsnewvoJ0GHSc6WruZzFtIVQts2FGRzfGrs+fSjL/L5J05zaFWoW0GplqoPadp5oJeCSttyc7REYhSCZKGtKXKoOwWPSh5DonSGePJ5diztYn7fjajFvbTFAlL0qdtA20xQyTPfL2mi4kqKEVZTvAwLoci5B1phAEGIaDyW1hqaQnN0DJ9/eJ0/ffAQ3z0xYUSP0g2pPNjxBFOPEZngqkhrE6cwPD12fOaJFf7ggTW+eQRONgp0v9MRXlkUugFjeW4l8v889Ar/+cGjPHGmoY1CqQWbIpNJTYp52fdSDfJ07FItrxNkmZyxFlcUWGOyntLXSDuCZoPr50rec8u13HvnTVy3ewliS0oRbTXGOQSND3HblmnbLX97TdCpSzlXnSlXIcvAW2AdeHEDPvdY4IuPn+Dpkw0bqaKOCmM01ghKPBIaaGtMbLKK2FZM3RxPrUT+4pEjfP6RV/jrQzUvjRVUC1fUOgCgSp5ZGfOnTx7mjx5+iWePN8QmQaqJTBCVUK3pSj5dOESc37bv3GUNg1IalSXaJN+S2ikm1gxMYvfQ8cNvO8iH3nErd9+wwM6Bw083aNspImCMQxtD28azApk3EbpJLTGGbrqpMSnfwQ1wdAxfefJFfvsr9/P8KFIMd2GTRVrPNE1Jcxaz1EcXFhMUadzQE0uJxbcR0SWrQfP1Zw7zxw8+zZ+/sMrDHqZX+HO/NCr59IMv8qcPPMrhM2fYUZUUviXEhkYlktIMKPNM5EqiE7Uwizs0DU09gliz2HPcdt1e7nv77fzEfffwzpsX2NWDItaInxLaBh88iUyKmTN5vhV6Pe0yDARaNNlNF4GUkzwUsDKBh54+zJ9+8SusDgecCp56PGG5qFioChobOaUaVnSkNgY/gaFbwLTApKZKiZJElMhYGZ7e8Pzpo4f43z73DKfWm/PP47KRBH7jzx7iM989ih03HFAbVNUqLDhwcxRhjioVSNGCvvQM47UgL3jl1cQUIz7k8oNzvYqDN1zLD9/3bn7qo7dww+4hcxpMBELN4vyAorB439K0LdY45hYWMebVcyi+X1BNCuI96JioHCAt2D5ffmGN//jXh/jqkZZy2MtupuhOZqIQ0wVWoqDqljipscOSNBNoqeypCCnLyZVgtcJazdv39/ixW3bzvmt6HBgEFDU+GVIqsaIxCqJOiNZY6fiqwGtPQQAcZ2rLt48HPvXQ0zzy3EnaaY2RLFOPxhCVRZJCicqzAZVmg+L51+ACGFMSY0RiwCjJeRIpksjjvFKasqpoW0NUkIyQdEDJhOuXSu67eR8fuGkvb9+9wGLPkExCS8ELp+DPnmv5zCtTookYsahUgXIUepKX5i/jrn41rEXhV+/Q/NzBkqHLqi+VpgRdoDAXdyoNGmU0SdtsAjufom4jG60ilsuoOuF8wikwOmcaSTNF6mmubaATurIEJAedNh1H6WJihiSWNhomjeK7Rzb41GOH+MPHj/LIcU/yA5y3lCmiTKS1gkaR6kTbClEytYogRCk5FS1/dXSdP77/Yb798PPUk5ooihZLqwpiMhBzPAUiiZQ1jdtsTevzmRtLlFwzMmVVI9qUGFdRt4GGiE+e1I7pxynv2L+Tn3zPXXzkHQe5+8BOFgc5LTASgIQRgIIphthFgQ2alBQhhBytVOqKNUQjoro6VR3UpsfZPT/7EEArcvqZs91vRdGKRllLVRY4AiYotBeM97jQUKYak8akuI5PI7xuob/9WjfjNvDY0Q0+8+RpPv3YOg+/DFI7IKF1jaKhIaECiHiSmgBTSJaTG5ovPjviT77zPA88/RzVZB3VaSMv2baJKJ6YAmhQzhC1xitN1I6gLR6Nx9CkMUrG7O3BDx1Y5mfuvpVP3HKAu5f7zBeGoAxN4QjnXPWOdVtPaHboBwAaJMvSO7MhovAotHE5c3myRlkMUGLxk5Y4nVAoT98J1ngiNS0t0V3ItlfDWBRO7eD42pA/fHyFf/udl/jGas1aTODBNcIoBkylKUuNU5EYAhtRc/+hCf/p8w/xuW89g1clc4MKrc4ql77n10Ucr4s1Zw1RPD4FdOGIWtOiaFFMQmC9rjFliVU1+xYUH7r7ev7+R+/jb969i+sc9D1YESKWmj4RvUmArVT4AeHAOdAqCWpWS1lBNA4xUBWOOSuYySmiNrRFSWstrdYEpdDGULiSwpZoMbRNzILObXztZUg7TdQtRAb8zsnj/NpDj/DZ5zY4ORnQmh7LUtKmKfgAoc9a3eMzL5zkN//iS7x8coNFt0hqDSetI2zTMm0XUQK9QYWyilOrK9ShxRYF1hkGvYr5YY/jx45w+44+f/fD9/JzH76bW3arXKda10ANKdMgnu/HbmWBdLOKHyBq6Bybyrp/IeFFSMD8wHJw3w7etm+ecdxgrAIyqEhVn42gWJsKbShwakilh7jgUHK2nO/3anESmRPBFjWrdo1dMuDYEcP/9cgJ/o/HT/HESWgasEYxjvD0Kc+fPHqS3/wvX+fEekOpoW8gieHw1NCm7sJeqsEF5Lz4V2J9tE7T1MzPDamcQ9opxk8pwpgdxvPhe27jVz/6IX7owG6WJFFaATeFsJGLmCI4D3NNF6rv+lwyCy5CAelGkos4NZfbLvJfLgU90wMoIilFYicfWx7Cu27czcfecT3XLRf0XUsMNVMfaHF43cenihAsOhgqKToH8iIMOK+1ThGrRN949sbAsE2kOM+h0wWfe2KF337wJT73wojVWvPcRuJPnzrK737jcQ6f9OigkNTQUpOsoaC//QUhkfNP5aJtUymlNSpFLBHjxxR+nWuH8CN3HOAXPvh23n/9kBuHhoEJhDTFq0hbGVoEQi4U5uTChTzpvouc/bn5+MLTuex2OeiupMxq7ELnUywYuHU3fOj2PfzYrcvcsaSYjxvIZAOtHbacJ6mSphVC66m6utznk/SCBkwGiqkOGB9ZahWFaApdUfiKk6db/uK5o/yHJ57jK8+u8tlHDvOZx17g4aOncXqADpogQqMSohMLIuh8Na8gNFXZo3CO0NSEyToLNnHn3gU+eMd1fOKem/jgjZqFIteCKC1EEVpRRFMStM2OpDrXr9p6024lwzldeMEFu/x2OVdFp0Q+GdXNNpzGECmABeDmefjbty3xsesWuGuoWVaREo21JaItgURIDUmm3XYAl0ZTBFIbmW4Ip6LB9RZxscbFEYvOUOk5/uzQSX7ra8/zu196lGdePsXOpUViapkmSG6IthU6TCmb0yjJwtdLfW0XruzltLqUsAg0E27dt4uf+fB9/PyP3sk79xcs+RpUQ2BCIlGYChUcqbU43cOWFZhEUA3xoitqW85nsw/zWV6pdjnQMdF1ZJ6zO62xJCwtOo5R0xUOusTHrt/Fx+64ibddsxvrG9bWVmlTiy0NtoJJe4YkF/vg50Fgz2qNNiVnlpY51VvmZO1xTKj0KtN4ilHyvG357TwpO1A7bmb/cJlyvIoaChv9Hic3AqOTE6ppw8JiwOjtffzzCfJqX77xnDmzxtrqGnO9Hj/94x/nF/7Wh3jnrQvssGBDDTJmnEY0LqGsw4ihryoGqsQlQ0zQ6MS0Sl0m5fbO8c2Gtpau7EwF9FA4DAaFBV1BOUdML3Ogv8Enbl7mF99+C3ft6oNsMPVjolbgejS6wrc+bwJiEq1uWZMNRqZh6iK1FRqtCNoyNQUC9FLDQMYYWmplqc0QsQsoHG09opKIGI3vL8DCPopyiYHRDEowhTBGOLkeIHhsbDHRo1Lo4hLSldmwJFWQdEmcJEQcqTeg7lWsxUhoA84niiAIidjTrMoJBgsT3nPnAj/3wRv5xffu4T07YI8Ips676OB6VGZIRa9Ta20pFGlz2UCHoUeBpZ9jNLpBVIukipQqIomop0TtiZTILAp8hVqMhiQ6L+fTBWuTJd/yXdz/vOCtzoKfHJIGg0J3TlrWA2JLtK2gZ1nYYXjbDZaffcf1fOymnVzTCzTNKmvNFFPMo7TN2c9ZTYE1NjtmIkiKSMwd5btIppWYi2SoRFSaqAtEFyhl8LHFiiBogi1I1RzK9nHG4qzBFI5oLHWyeXEuhrxqm7oPD5vfhWyOXalReFI9RYfEsD9HspaxJKbkKfNkdZVre47333wNH3vnbXz4rhs4OJ/rNhWpRmtIxpFUgVZFd/N0V3T2jztZokZhN38voCKoiIgBMdkeqdgF+y2ytWeuAGYZ55uQBLOz7X5xvt3ahnuuUHYPjZ1jZGE4Dx+71fHf3LWXH95fstNNaZsxPmkoeiTliEmjxdGTiipayqAoPLgY0aG9wPl5tZZQeW8qZXLquzaIKVC2RNkC5Sp00SN1M4OUslOsELSSTrUYUclD9OgqIGmCno7p1Z6BKUllyYaDkfIYIgfKHj958838zO138qM3XMct8yaLb1K3U44tUKYiit1+JO4CyAUd8YOCbRAiF9qoRROJOBoGesIP77f8zYO7+LHrl7lm6FgZncYbTVCGmAziDbrWqHHCtooehlJrVMwrguc7QBdr3bJYbkoj2iGmQGxWa+ligC4GJDRRyAtrkot/SVcRViWfM75TYOxHRKkpFLgEk40NklVQgDaePUPD3/3RD/Ar73s3P3HzLg72oRdAJ8EUFkw2wUm2Jbm8EN0Hk8t57/cJ2yLEVLKHMSdAnLIRVtCu5sM3LvPL77idn7rjGpaWRozbVUbtmCgJawu0KfAevM+OlTIQyDOC7SDXXsukiMqSlM0bmrkeFD10OUBXQ7QrwTgShhCFNkRC60k+QMyUsjrRBki2R+sso+TRVhHWTzPvN/jAzbv51Z/+AB9/zyLX71AYA8SYK9jqAEpok9D6RGrBXiYpNt9yTsBsawDtAkN52W2bl/kcbIsQA6CU7B2IqUjVPNgKNNyyCB+/fSd/775r2NP3mDQCmaBNohj00f2KRitGMTKRSNrU/W8PW52kpHSulqK7BCFbomyJLofoog+mIKBpo9DGLt2uCyFbrajsAtNgWVfQ9jW1P8PNA83Pv/0W/tt77+C+AwP29IHCg22hiMRSURMYR08UsNri9Da1mR3knG9no6bnvmDrkyvVXju2RQidpnnOrYRARak6Ib2Bog+37jL87E27+LFb93D7csm8muCnZ2jDFCkcsXS0BlolqCKLPS+g80Wa2qQ6+QN2M4esUjKgDcoYdDlAFUPE9RBTEJUhSi4qurUsT2ryknCuqzTl1v19fua9t/Oz7zjIB65Z4ppepMcIb1qCTQQNXmnazp/RWmNN5zpkd+W1Y/PjdA+EzmJ23y+8DJfdLgfbIkSWUiVCdy2qNjsWyYC3MHSBuwrLT99xLR85uIdb5i1VWGcyPUNQAeUcyuXZg+n2tjyfyxdrnV3oNBqzfTBzT+QvEDTJliTXBzdAuQG66KFsAdqR0ISYaH2A2NJXgT2lcNfuHj917y389Htu4+3XzjMoFVqyPsFrQ4vGd0OWFUehHE5vSXs7O5W5NLZ0zlbbMBsumHVg/nYF22vHtgiRnCPgsAK92sO0hRQIKudxaAHaxAd2Gv7GwX18+JZruGXXPDbWBD8lkTDaYrHoNl+A7UCR0F19ZyWpKwPcydbSbMxNeLFEXYDrYashRTXEVQO0KxA0bUhMG8+wl9hVNLxv3xx///338PfeczPXzicwnqxeKZHUx1JhpEB7hW0UfVxWZAoIiaA9jW227QvlV5372u298/uPSxJCgBMUmRCtyck7RY0vxhhqKhJaShgsoBvhjnnNR+66ho/c+w5u2LMTFT2+nhKbFmkicdxuWyemJLuUCskzk24GgeQ2K6gVRBGUQazDVBVFf4ir+t3Wy5o2RKZNQ4xn+NA9B/kHH30/n7hpL3O+Qfl1gva02tAA9RhUA2WAEkOBzaVtPeADIbZ4HQnmXCHSa4Fcrj3/PuCShFDAEJ9TvAqgLMHMI2GelPoELLWGVdUSBy3RNuyv4BPXWf7pD9/Ij16n2FusYNMaWitiLLM4NYbcUkDk4i3TwXQl/wypi0Xkx5akDFEZCguFzWHXaEomYpFqDlX2wSjmByU/cu89/Iu/9T7+/vtu5ObdFb6C5EowBhtbijShBEwPjNuM0+WtdTabwZiCAkdFLim0HeTg38w5trnavXR+jiiikizzA5KoK9YC0skahaS60of59jp7blsesx1CAJQENJGkutCsAaMUqqvaHgloM4u4Bay0LBRwx4GC/fMFPdUiqSaqSHSzHSnPjp9wrjM0Sys927bMNGZxic52JFFE39I2Da33tFFoIiRToss+rhpQDefYs28fb7vxRm7YucCwyP+zkYiYAnQJSSMhUOpOPXbRprKwGIPJOU7bgpp92+wQjXRZ5mdH+7Pfr1Tb6vfK5jmcf1LnYluEUJLD2YJs7mSvu3i9ji1FaJgHrBdscrSq4EQLjxyecvTUiHoSkJiIytO6FtGcrdCuFNAV+lRny32nnB9wkY95YYspEWMkxayKFqWIqBxVLAck22NlGnjgyJSX1hMxQU88RZjik2WqekxUhZ9VEn+DTPqr/9mZg/zmY1uEMOQFEUlCG1va1JBURGuPUwGXQg7ijBMxOjYMPL5a8+/+5PN8/YHHWTm5gW4jpJpWjRCVs8rPtjyNFEwOQmG6qrAXMvhi6PdKBv2KqqooXYE1ljYm6qiYJsOZaeKZw6f4ra89wWeeOcnRkUCQLIOvFW0DXoGUBjHTbhXojcBsbjR71h2Rji1bg1VXoF0OxbZFCCUmy+NQuR6CA2hzDgcxp+aJhmrIZKD48nMn+Fef+mP++sWjRDNkqIeYUUN74gRzqkWn0I0FZBMqZMl4LlFynoW4NGKMBB9I0Xf1n7tZqnZQDAhuyMlx5NEw4N9+9XH+z899lydPGJAK5zX9FoooRDxTpfJpXUHkbuk6p+v8PFxuf8b1/cL2rroC7yMpBqzOYtIkkboNhKhA90D1ORLhP3zpcX73i9/gpWkk9ZcQVRLrSNFE5kLEH3uFNJ2QfIMEj8SwGWOYhYLzzZKJsp3WtJ6m9bRtIIQ27yuBoLXBugpT9GhF07Qlq2ofXz1m+V+/8DSfemyN4xp0TyjSCN2MKSi2L8m7LGwhxuxBRxD5ASDHtj559lCzzzBbJCdpki5p7JA1MTx1csLvfP1xPvvIczx5YoMNr7HlgEkTmDYNxEQZFXbUIM0kJ/p0m5Wp4DdjDVpSjlDCplG9ZFO5lI9SmU1agep2tEkpEkXwUVgIJTrN81IzzxdOK/7vJ47w+08f4rHVVRoUlVTYUHTW8I3B1j7fJPXmLy40+6+nXQ62RYgIKKcxRneFw3JqmnIV68Djp+AzjxziP3/9YZ48WeMZQmOgTQQCsVSEQiNaU5ke0rSkZoy0E2jrvGVyzJuPKOnmEXKJKm9boKzFOocxZjZRxUgk+YbQTpHQokRYSIJtAp6C1XKRr5+q+d2HnudPnzjCoycj6746u4fClcYWjouc60u8Mf/w8rAtQnjy0jKSwHtk4jFYWoFnjsOfP/Qsf/itpzjFAqO6QiaWRemR1kYMF3oUu4bEhYppYaEcEENDbKekZppLCYQWHVt0irlJRJPN/vmsv1gLUQgJYkykkIllVdpc9i40zPcdtYzQZkxPjanamqHbwUtnhnz6Wyv8p/sP85VjLS8LtOdfgNeJTVsmnCXCzCJsGSp+EGixLUIEEp6AbxvwEVX1AXj62XU+++Vv8Sdf/RZPrUyY+orKLDInfQatYs9wjqQia6nmNA1nVOJMCATfkHyTncBwdqsClWIuDyhZ+b3dS5RXOFTWQ6S8aG5I6BRQqcWqRL90rC9B0xszn1a4frrOdavCYrOf0xv7+dILgd/65mP8u0ef49T0ymWnvyZssuYKtctAJkQIRN8iwEaTWPdQJ8gpOw1Dasrk0cYRygUmyvG15yb80bee5S+fOMJLjUXvuJZSexRjatMwKhITDRIVrlWUXlGIQltNcgYpNOhACBuMNo4xWj9K3ayQdIuqDFI6jBeKqCiUATRTnxj5QC1CtAqcyptgyCwtXyHK4kXTJE3QjqRLWtGMmgCtIkXHlIJ1A+umprVjpPSMRPHsac3nHp7yr7/2Ip85tMGxtuukpoXQGcgI3geIk5yQIy2krS07ySEmpiEy7ka+Wdwl76KTp9s55pI3QUnaEpUmXMHmw0xFlm3RrH53F/m/qAwhhw3zwJZJpXWWWOrZ8YgOEZcMQVcc8/CFp1f5owce46vPHOboOGBMHxsNTnLQP+jYLXdnj9RGhYsKK13lGVtgtc0b3UtEfJv9iNAi3hMaT1M3RFcRbElQGpRQOEVpFUYJEoQYFCnlpNI8LufwbEQRJMvvksrh4cZH8CAxr2JOVc4NCaYBExClGLeaoyvCF5+v+cOHXuHzT67w0qiLwjVTVOtxKaGVIqiKgMbHRAiRFFLnfXfl8LbsgnOOGe6ilTliqTZ345kJ/q5o6ySFGWcthsyeXciHLsdFGZTSpBjoOeiZHKGWlDIzfImPFccn8MDLZ/iDbz3EZx5/khdGY7QrWbQF5doa6oJExovDYTBJoZPGUdAvh5SmQlqh2RjTrq/DZMrIONa1YSSRqCL9AuacphJQXoiNJcU+8hpiFtvB8Ynhq0+v8UcPvsJ/fWaNZ8fCNNSQ1kA2MAqC1rQ4anGMo2UUHS2OqHJo3WioDFTKn0uIi5ly2e7g+MZDo/NdlQRiyFsNWiKENpsc5cAUnJ7AA8+f5I+//QR/+cIxXmxgw2TdQU9gMYYLUtZeDRISoQlELxhVMuwtoHFMN8ZsrKwQxhvMW83aaJ218QbTtsGHFu+brsIbGHEYKZFUXJzqrwOTcWQ9zfPXryj+zRef47cfOsHzMkBcmYeEdkqV8r7axhl04RBraHUX8TR5iMjjTL15dpt35uazLbgYUd4E6BQhJAXaUBYFikSYjknRo4uKBsORFj7/6GE+9aVv85XvPs+EOeaXb6LqL9H6XGux7OXFjVl9ildt0OVyFERt2fCe42sbNDExNzdg58IAlyacePlxbnBTri1aBqGmnbasTTXrUtHYAakowUR0GndbHV7EqbrMtqgCfSKqmucVt4d/843D/IsvvsR/PV6xVu7ModrpGkWa0icwMNB3UGowXQbfVpw7xaSbHc1+nkuTNxs5L0ODmK40sESsFjCOicALa/C733yeP/nOEzxyZIXRRNFLA6rg0E2ibVtGqWVkE3E7y7coVFngraHW0BoNZUEyCZ8maFlnqddyy74e//DeG/iFO/bxzuUh88bRUjE180xsj9pA1GOMXp1Niq9Y8ymhkqdkSqEDMlzkC8+N+N+//AK/9911DjUlPtrs96QxOk1xKeIEbLf6J5KHYlS5ZU3m4gEjke5/X4Scr6tdBvLwpjuxh1J5EmcMrRgOrSQ+/+AL/Ml3nuCBo6dZ8QrnBvSTxk1bdJtzLILRrKkssTv/4l6sJaOIGqLWYA3KKUKaQlhjR8/znluW+cWPvYufvXOZv33Hbj52237etm8nfauZ1jWjpsZLi7IBbabdxPPKoS3maAHdrDMfVthpPG1QPHBog9//1mF+58FTfHOjz4bPCTfZJgRILSo2qNgiIiQcnvIiZ7eFGNJdle75+dfq9bTLgVaS35yAlDqbrgynRw3ffuYIf/y1R3jqlRGrQSOuT1kWOGkxfkJBpHAGbRxtMqQt6/vfq4UQoCtAppQQ2ykVnuuX+vzQbfv5qffdxs+//yA3zCfu2VvwY3cu86N37+e2JcWwXUFPV9ChznWi80rbBTfH62mxP4+3Bck3uOkag/oMy6VCRPPwkTV+74FD/O6TIx44pXl5XDFKFahu9z4JKPEoyYKXs4HPs10k3cPZzOjsL65wuwxoNRvXgSbkWk1RNIeOrfDVB5/iuy+dwbhFqmoBZTWehkaNkaKhqKAqLIUuMN5Bukh5/os0FYS+tvS0Q3tP2Fjj5uUlfuZD7+NXfvJD/MSd17OHdWhX0brm4B746F09fvKOee7dFbjWbFC1U5I3eL0D6YS7VwxphKsMUg3Y8I66VjCpGehEfzDgFI5//6WH+J2HzvDZF4XH12FdAaoAo0GD6vIpL+iXCw6cRRe3vIJfrx06hZbQ5RhYZ3I5f1uw3gRObjQsHThIXw8pkwOBOtWcCSusxjPUMkVJwgWFGc+Wsy+NobWkSY3fGLFUVPzoe97Hz/74R/nwPbdw00JJGTdgvALDPqnSGBLXDuDn79vPL37gIO/eO6Tf1oxWPU3akXMlryD69RHi6AQb0TIa3MhGdSNT6SFtjWlWcdTs2L+b//fbh/mPX3uBzz8+4ZnT4De1Hbm8gj7/gkju9AvwasffBJhP/savfTJogygoVI5UJWV46vg6X3/uJEd8RTFexaQWZYCiIJiSNhmMrSh0gQ2CjQHtFNHkWYRyloEr6XnB1J62mVKrgFrqMZ4ErARu2dnnx992Lb/8I3fyvn0V+0rQEqgFpLeEhApSFquVOjBnEou9krKqaLThhA+cGK2xVORE2WkSag2UCUkjdGow2qLdIo3Mk8upsRkYerUmZGdQK9upM7rNX7XJGgscGsPIDFhrAidXVjlzpgYzpN9zVEWRk5xp0dRYSnSKnJk0PHIm8NjY4VVWkSvRGOUoU8h7dm8JXL3etuGF9+63vGOPo9Q6122VhFI5W12rgCg6baiCHIfoVv9nhcck+8TOGspCsXbmJElnPWWKIK3ChoJSeuA1MQriwJtAiDWEFisJl4TURnxKNJJQzlKVJbGuKVXN3dcv8/H33sHfuPdW7j1g2aNG9MM6NrWIcTQ5GtJ1n+SwcL3G/qHmvTfv4SNvv4H7btnJvFtnIkItCqWgkABtizEVUgxpkmYyWUenUWeUz+ozX60l1UOpAotgU41JdZ6AGYfoEsQiTWK+X4JWvHR6wpeffIU/+Ovn+cLzDU9vwBoGj2DwxKaFEDfFRXlGlbJlli7ffuZYXKRjL9oumM9f2HJNoGy1ct+e7ecctZZZmdlN6JkjlVcLMoM0kcW+Y/98hRmfYOoUTZlj7aoVzCgyiBbrBe9bJhKYloJXNSY1lG3ANZGmDaySGFUWBj0WyorlOvKBa4f81Htu5CfuvZG7r68wAqGdolKgsMLQJEo82oBygMm7/DRtjUuRG+bhA9f3+Ju37eOnb1ok2oTXgZ4OzEVPVYPTy4jdTUtB689QxRfRcmXXMYfNGgvKY63lWAN/+dwJ/ujBF/n8U2s8diKy2ligoA55yk235eNMG6YRUhJCTJsO+ZsN8z//2q99MimN1WBEIOaVvoBmvUkcPvoKh31WJw+rIQPdI2zU2CiUhaOOntVmg/7OeeYKg/ERmaZcmGI4x7pJqJ7Fppb56ZgPX38D/+in3s57b97J3p5hqEGRsFWBKkwubpFaCDXG5WIXiQhKsNqilEEny5JW7B8abt7Z54GT67TBY7wn1kKv3EWbBviQKCvYsWCI7UmimusqaF0ZlKOT6BSJrqIp5pj2d/D00eM888IhpuMJe3cssdAfYCuDs5YTGw2PnPA8O6konUPHgG9aGp8oi4K4eRtfAtt4CcDIC/ftt7xzt6VUs+TklMslKdBERKmuJkgeMsxv/PN//kmlsnXQMUJsIUVc1Wd+cQdVUfD0sVU0BhUSTdOwY3k3SSnGbZbWF6UjxZbpmQlK9zDlEG8do9RS9RSMTnD7fMEv/fC7+Ls/cid37IEdZaRSKetZldmsKj+za9rkchsKiAoEhzIOjYW6Ad/Sc8LyvOWm6/cg4w1OrkxZZ4G23EFKLSaNie0603ZKubibFNzmlO9KoIwBn6A1JanXZxoDOEuKidOnzvDy4ZOUw93MLVkKA6drxZMriafXC5RE8DW+bfHJ0O/3iV0y0qWQu+7SGIXLIMSv/cZvfFKTV5FVDHl48hGUZjgo2bVzB1Wxk/UTJ1lbXSFZzUYKxNISVEIrqLRGJjWWeVocU6NoCyHEEeXoJB87eIBf/KG38WN3HeCGHYqenaK0ZKW1yqV/fVIE0SRtUMZmxydYlFhEObwyND4vp2utUa4r8mAiB6ywe9BHVMGRjQmnmhoKIUhDSoJWFT5UXRXRS1/w7UKrHkEXBKUQFRkMHDo2hKYhiqGVAY8cOkOKDqsVE7G83PR49HhgOhmhUx5utKtwhSN1WtBLYbuG5DIJ8eufNChUStlrNI4UIoKmVzoW+4ZdgzlcUtT1iFPjNTYIjFNAO0thDCYkXCsou0hyjta0JBmxq2z5xG3X8wv33smP3bqf/QsKw6gLiCp8VHjRiNW5PHi30CYqWwfddlbD5ABP6/O6vHEGZS1eCTWBfhvY1+8zN1chOnBi4zQbIdAoA7rEJovx6YrL6xvdI9kCYxVWBUyYoHyNBqIqWPeOIxuJ0dopQjNiHDWvtD2eWgVpG3pOUZQl2BKMJqXt1c7Ybl2KUeC1E+J/+fVf/6RRkhUTCTAOEb2557UVYUehuHbfDkzheOX0aVanNdPW41yJFkVsA4Ut8BhsKQxLz4GB8OGDe/gnn/gg9107pFcAMiWkFqUrfDK0MSf+OJsFsnrmQKeOB757bjqpQYLC5FVG0RAwtCh6Pms49i449i9XpDTl1PqUcTD4aNAxMlCRpLdzubcPbx3KKKwRbAq0ozNYAWscPmpGPmKGC5w6eYKN1dOsTzwnQp+TaUjPKgaFRhtNkxRKq6xA3+4JbuN143gZhPj13/i1T2ahSp4CofOOckqbbDVCg7GRhb5l374ldu7cz2OPPsWOxWWm08j6aEpQCjM3JMoEpid4x+4+v/qRe/knH7+bawqFVjHfndqAGzCNGmUdReEorc6111LIBdxU3i9DyCuHyUDMwT8qk1Msdcx7oWgNShmUc2ht0Cqwq+e454Y9kDQnjhxjZWUFrCWVV86ZnKE/cIQwZby+Rj2ZsjC3jFIFTRtRWtGfK/DNGtNUMh6ts7oxZk0GhLmdLPQcpc6Lg+MmYozpZEyXxnZ9iMsixK998tc/qZGOEJo6KiTvh5pfFBtwE9CJwpYszVfcdvAdHDl8hiPHV5h4T6ocU5MQOc3H33krv/wj7+YTNy0zJwmlpmAT0RR4bQgJtFWYTtKvpUVJgyZ04V5BCwQfwenuro7ozh4QunNNGi2ZNGMFrVKgLFo0vQTXlJrlSiFKONwEVvQAk7Je80ohtqdIfoLWDlcsEPUwZwsrBXGCNKfpmzGxdw1Ok2cWc3uYlvOopkWaMTG0NKLQRqG6GNClsJ3XcJmEUDFFUVsIEbvNcDatRvKg2xylUBU1ivUWHnpqhacPH+PY+oix93iluPfmHdx1YC837VhkuZrZ/kS3K0f+F7Msvs0QS94FJ5/NbMzIgp2cdSuwJWy0KVPj7B+ZdLMkB5g2gs/CniO1cP/hM3z20Rf5yjMvcZTbqGzJgmkoZMp6PSIV87nQiNKo0KDClKTdRfWG50OkyZZbWZSyKOXy+SaPhBqRGqOEyBAVpvSKkuGua9Bzu9GpxZJ38w2Sh83ZMv6loNjekHGkEf7Ze0r+0Z0li6aLLKpA0CURKPHZBHeRSwCVtrMV3CwBVmlEGwIw8bA+aVndmDKZtkTgHdctMSi///tGNV0CoJVMBnyCsk9j4dAafPv5V7j/kSf41JFdeCnoqYbUjglaiKYHqsAkjSbhjNCkuK0SFjK7iLOfIrlTU+eTddNIk1piFFxvyNLyHvpzC0SZ7XojIBFnNPF1JNhcDDNC/OM7CpYMnXXwtKpHBHoECDab6u4zbFuMmD9qfqCBnoNdCwU3Hljg9oO7eNstu+i9CWSAXLA7VzfWYHX2PDvSL8/Du27Zy09/8P188KaS3f0R4zDmdNKEwTJKaaQZkep1VEhY/do3os5d2Dms2+rPizi3Fxx4c7A9QmiD0rlQZ0wxE02yc1ck6CvovYax7UrDpW7hhvyJohG88kA+twNDuO+Gkn/20Vt4297EVFah38M3Jdprknha6wk6MTk9RsL2nLtNdOH/cw5sfbaN1cxL/f77hW0RQsh5BPmJkFJABY8RjyPiJGHzMsqbBAVJkUKkjZGoBekq2VqB0kNVw22L8I8/8i5+5d476E9P0bYrTAuLGS6h7YBxW1MXDUnl7rlke7U+lE78sjVlb1OAs+VNsz/yan/nTcC2CEF37krrHJvQCmtUNxPpdEHyRiVFbhOSq9gmEeiqu2jy5iezVhl494LmV++4ln9y783M21O0ZUurHCpZjIG00yO2y665VNvsz+7AJgnOO7VNuUr+zVay5KNdTsyrMuz7h20RYsvnR2mN0lveJglCIDVdDes3AwrQOaStVa52kycgkj0fLWASpYd54F27Nb/w7mv45fsOcnCokDBhSsD0LYWqO5Kf3/vfo83u/s0Tyo82n7/aZZkdl61P3lxsjxDnlVXfnARKXh5oI0x97O7ONwE6R7G0sVjl0CkXv5IoufaE6tb3fdd/pefgXsP/9JEb+DvXLnH9oIFygjihtx7RYSaT30Y7/1w6zOT1s5+ZNLMEZTbJdDGL8mZiW4RIMSc2qtnHELrK9A7lSmzVpxzMdxuif/+RVEJUAkXegbgFmUZCHfEhz/OjznGLWjxntEfhWWzhn/7QAX7l3gPctQPi2irDsIySrtrudiBs+gnndvj3Qke48w//AGBbhJglidKRIcSs9smKnPxT9JvnUjbiyduqkxVIpsAVfYqyjy1KxOTNV9d6EQrHjtjHRmiKht5Cw9++aZH/8dbb+cieg7yQCl5z7nd3959zYOuzLaT5Qce2CGGM2SSFUrmQuNFnVVama28WJRw272qTTUQ+ma58olKq2x9I0yNREFBEjDJoHI6CfUt9PnD7Ir/07gG/uP8YQzVAi8PKCOJxcG1exEpCkTxWeRobu/qSWaa2OYR2z7ce39y2oXN682s6iswmbzPibKcFUEpjSoWpAqI3IK5jQo2LoGNFCH10vU5TC43XkBpIZxAV0EAZgWRpba5hOcO2CLFZQnDmv+m8FqG7PzBrbxasynUjYXaCXes+qO74UUTJuYtdON2gkaQwDvYsa95/64BfumeeD143YJeLED3ROLxEUpKugKrL+3ZLfXaWIOQUg86NzRZBdSTI1mP2NSNC50FsedztgLON1qiIJ5GihtYS25ImFtTK4I2gdU2ZRuwpagbWdJchgvZZp5pyDAmh2yDurPV6M/vx+46czd4tpnSdFUMgpRzgXFzo8Y633c0vvbPgvv0w15sjuD14X+BTpLaWsatokqVq69mWhhfF1s7uDpwH2RxqpHMu6X5eqrUmUqdEM9W0kyHRL+P1Lmo7YGIirVlF2Ve4dU/B9YtFlh4oBbpCKDrrlWHx56g531KEUMaAMZura7pz7lSnRLYKFoaWj9wU+YcfvYWP330QNgLoebwtaVUiEEEZmnEWyMoFHX0euhfMLEc+lMlwPoQLhNMXbeW4QKaWsVaMBoJbgB0WdjQRPQ680gqPlAW3HVjklp0wsOQFLCoiZXayu//pUthS5O0tRoh8UWYDZh4Gy8Kidd7DLfh83+hhj7v2OH75nQv8D++/gWq82uk+A4R1YvKYhVtySeQtxn82w+i8g03M7v6ZVdg8vvVFrwGDyrJQwEJq6fkRdVjjmJzmsFpnbIXd1U7uG97Ee3fNc6DXFfpHI+TdEGOnU0XNspLP4i1FiFk8RVIi+rz3l1ZZU6GJWbEUYZ0BhVW8cynx9+7s8avv3c915QQtEyCRRGP7Z6fZm/2dn3U/8oC/SY6OC5vE6Q7OSDR753YajIEpUUVqFKsBJm2gFM8dQ/iZ6/r8s7fBvUuKRSuzYtRZtDzLv9F0ksJzpwLbW/7+/wkkBpQih7hjwhidO1UpYlcayDrLCa2ZBwa+hWnLU2uJ337kGJ99YYNnVhMxVAx1Sds5lmrzsnajswgiCZGESoKKNTFGyv48i8t76M0tkER3jrqAJKye1d27NJL2TLynCQmtDTurkpuGltvnNHfvsNy9u+SmZZhTgA4khCgKhyVKLmqCESq67S112VnPtxghNu8xkW6vjXxB6foFETCatVxYh0EI6HYNTOT58YDfenCVP3tyjSOrDX71MDLcjdLFWbWRZEIIOUIqdIQIU2JKr06IlLAmC4230xmnXUHrpwz8BjcUkR/ePc/Hbljmnj2wNMh3/iSu05ceWEutFZKg57PvlJzQ6qwhcYGzftVblhDdw1zCsHsyU2spAMskQSQx1A0qjkHP83xT8KnvjvkPX7iftTBhpHaTKPLbAYXk/QI6C0FXrvksIeZY2LmH/vwiUbr0OuiKtHTK89mx74GjJnLrfMHHd/b5xC7Du3dCNaihCNnXkbzdAyHLyCadNqQ36eabpdAoiBj6bSdU7U7mLUWI4H03TORpZ4oRPYuwqmwhkvfooKFQtM7SdMlCw5TXQl6cCP/l5XX+zTee4uQZS/BZEXwxQkhXplmHmhAzIRaXXz8h/vsbNW/bN2DXsmHnHFQKTKgpAGdyRd8EmBpikQlhgP4kgWqhTNRd0bRebbDF5ojx1iJESinPODvzKEnOSic7QkjqssmMImlN6Co3lp1xCQKHa+Fbh1f437+ywqETG7T1Bt57dG8OqeYZ+0hsphAnDJ1gvcr13YuKcmGJ3uJOiqqXyRg90npUjNiyIJmCRjnGSTENHitT9leeO+Y19ywX3DJXcM+yYWlQYHu5IwVQKWIEjMqEF7IxSBpCF0S0oXMwDUSVyzaamHc4mF2HtxQhrjR+89tTvvzwIR4/dIRjGw0y3E0qh0x9C80YpMkllUd5Bx1XOqq5AXNLC5S9ClDEEElBUKIwRYFXmgZFUoq5QnHTQHj7TuHdy8Lbl+HaQcS4flcA9crjKiFeB0bAZ767yqe++RJfPVyzKn0ILaQp4NFGY6o+fjULlN3AsTRfsDBXoY2hFU0rjqR7mGpI66doaViwgRuGivfsHvKBayruXIYdQ4h4NuIqC3oRp17DiuxrwFVCvB6EM3i7xJeOwb//q9P8l++8RBCVa1ngs1p9Y4O5+SHOGsRoTNmjnF9E9xaIto83vayEdxBHx3n7vOLj+3fw49dY7twJOAFTExEUBVrs+aGDK4qrhHg9iOuA5Uzs8+gZ+NQ3j/DZx07w8lhAFEq1LBXQnngOU/Rwy9dT7L4RmVui9pCmI/ppwq4ysXvO8bM39rl5ybI8B3vnhKWi7eT8FujhUUwDDFwOpr0RuEqI1wNpQTwIbATL4yuKP/z2Mb7w5EmeP10TUFgJNDFANYdb2ENvcQ+9QcW8Duwz69w2mHDXsnDrTse75ucZVJZYJsTlgiKkhAoWLRWYvHVDYbpEqjcAVwnxOhB8jdWdRC8Jje7zncMb/MWjx/j6sys8ccqz0hj8cBlcRVU6ds31uHFnxe1LitsXPXcueG5dSuwdCuhht1CvQRmiUvgEKaa8bajWeY3czuIlVx5XCfE60IzXUNahXYmQMLFFK8XhNc/Xnlvlz59Y5/l2kTVXYiWwbD0HFw337B/y9v1Drlu0LBQJKw0SGzbKOQyGXpc6AFnkIwYUPjursQW70NVauvK4SojXhcC4CUx9wijF0sBBqiEpJnrAaQ3PrcO4ycGjXQXsq2CnzWuPKIVXUHf6X7q4ASrbiSFgG/IWmNpDGZiqSMkgV9J5A3CVEK8DdffTxhodPVEUlMMs4pe8V7iJNbVVedqpDIVyOUlAgBDzBs9Go63OudGbcqZAItLGXCJZqR62K4F5sQLrVwr/H4c0lK/lfEBNAAAAAElFTkSuQmCC;" parent="1" vertex="1">
          <mxGeometry x="-150" y="640" width="53.66" height="50" as="geometry" />
        </mxCell>
        <mxCell id="fSjYENabkBev0ntUEMhD-21" style="edgeStyle=orthogonalEdgeStyle;rounded=0;orthogonalLoop=1;jettySize=auto;html=1;" parent="1" source="fSjYENabkBev0ntUEMhD-16" target="fSjYENabkBev0ntUEMhD-19" edge="1">
          <mxGeometry relative="1" as="geometry">
            <Array as="points">
              <mxPoint x="210" y="505" />
            </Array>
          </mxGeometry>
        </mxCell>
        <mxCell id="fSjYENabkBev0ntUEMhD-47" style="edgeStyle=orthogonalEdgeStyle;rounded=0;orthogonalLoop=1;jettySize=auto;html=1;entryX=0.5;entryY=0;entryDx=0;entryDy=0;" parent="1" source="fSjYENabkBev0ntUEMhD-16" target="fSjYENabkBev0ntUEMhD-37" edge="1">
          <mxGeometry relative="1" as="geometry" />
        </mxCell>
        <mxCell id="fSjYENabkBev0ntUEMhD-16" value="" style="verticalLabelPosition=bottom;html=1;verticalAlign=top;align=center;strokeColor=none;fillColor=#00BEF2;shape=mxgraph.azure.github_code;pointerEvents=1;" parent="1" vertex="1">
          <mxGeometry x="-148.17" y="480" width="50" height="50" as="geometry" />
        </mxCell>
        <mxCell id="fSjYENabkBev0ntUEMhD-17" style="edgeStyle=orthogonalEdgeStyle;rounded=0;orthogonalLoop=1;jettySize=auto;html=1;entryX=0.5;entryY=1;entryDx=0;entryDy=0;entryPerimeter=0;" parent="1" source="fSjYENabkBev0ntUEMhD-15" target="fSjYENabkBev0ntUEMhD-16" edge="1">
          <mxGeometry relative="1" as="geometry" />
        </mxCell>
        <mxCell id="fSjYENabkBev0ntUEMhD-23" style="edgeStyle=orthogonalEdgeStyle;rounded=0;orthogonalLoop=1;jettySize=auto;html=1;" parent="1" source="fSjYENabkBev0ntUEMhD-19" target="fSjYENabkBev0ntUEMhD-22" edge="1">
          <mxGeometry relative="1" as="geometry" />
        </mxCell>
        <mxCell id="fSjYENabkBev0ntUEMhD-19" value="" style="shape=image;html=1;verticalAlign=top;verticalLabelPosition=bottom;labelBackgroundColor=#ffffff;imageAspect=0;aspect=fixed;image=https://icons.diagrams.net/icon-cache1/Unicons_Line_vol_3-2965/docker-1335.svg" parent="1" vertex="1">
          <mxGeometry x="180" y="650" width="60" height="60" as="geometry" />
        </mxCell>
        <mxCell id="fSjYENabkBev0ntUEMhD-22" value="" style="image;sketch=0;aspect=fixed;html=1;points=[];align=center;fontSize=12;image=img/lib/mscae/Docker.svg;" parent="1" vertex="1">
          <mxGeometry x="167.32" y="390" width="85.37" height="70" as="geometry" />
        </mxCell>
        <mxCell id="fSjYENabkBev0ntUEMhD-24" value="" style="shape=image;verticalLabelPosition=bottom;labelBackgroundColor=default;verticalAlign=top;aspect=fixed;imageAspect=0;image=data:image/png,iVBORw0KGgoAAAANSUhEUgAAAIQAAAB7CAYAAAC1gChrAAAAAXNSR0IArs4c6QAAAARnQU1BAACxjwv8YQUAAAAJcEhZcwAADsMAAA7DAcdvqGQAAEL6SURBVHhe7b1pkCXXdd/5u1tmvqW27uoVjb2xgyS4gIRIiaTERaIs2bIsybJmQrJHtifC4ZkIf50ZSfQHf/JEOGLsmNGMNXbItiSPRI0oyTIpUhR3CiJBgMS+Aw30gt6qa3lLZt7lzIebr7p6AbvQaBCMQf8rbtV7We9V5cv7z3PPPfd/zlUpJeEqrqKDPv/AVby1cZUQV3EO1NUh43VAJhA9MWmSLtG2IAGJ/E0BVoMWD5Lye5QGZYhoIpzThoAhAQpBIeS/gXQ/ZzjnyZXFVUK8LgREElEUKI1WJh8WMgEkAYIYlw+LQApoBVopULOenXV+3HyeEvnvdjwySqO1ymS4SogfTDRd3xvAIOjYgkTQOne25BckZVHKoEhIiihSRwYB6W7/mSmYvSdBQgMKpTRKmY5EVwnxA4tR1zcF4CSAn2SrYCwYR8QQMOjpCKMU2jowphs2NCklUhKUUiil0NJkQs16RBtQFpTJVkQgyVm+vRG4SojXgabzyh2ANCA+95QqGCXHyMMkQVhdwxlFrzeg1zdYk98nkvuflFAS6TtAdyZis1dUtkGi8QEa7+lVDmPeGEZcJcTrgQQIbbYKNjuLQZW8eKbmicOrPHdijdMTjy/34oqSQWnZOXDsX7RctwD7h7BowMQRpJZk50lKoyWhZ2OH5DFCROEj+AS9ovMn3gBcJcTrQb2ab3PrwFSMsTx3YsIDzx3jkUMneWllwlQsY7MTV/VZHFTsHPbYt1BwzYLhugXDgTnF3gEsFpq6cw5sZ3W0REgzR9OQMMRu5nJ1yPhBxPRMHuftgNVoeGElcP9TL/PdF45y6PQG46CwvSGjaUtR9ZlfWGRufoF+WTCwwmKl2LNQcGDHkF0LsG8AcxZKoCL/JLaQEiIaTAFvIBm4SojXidAAjrWgefZM4muPv8SDzx7h2PoEj8KVBc5a2o0TFL2K/uIe3PwyyfZpQoQk9Jxlaa7Hwnyf9+2E6xZgRw8WCxgosCmSQptnsMZhrL06y/iBhcDYw9MnWr7y2Et84TvP8sqooegPGAwKxE9ZPXUUUxbY3hzF3A7KhV1UC7twZQ+rFCq1iG8gNuybnuDahZKDB3Zx+7U7OLBgKQVIITuZ2sAb5DvMcJUQF8FGN4ZXBEgNKEtSJZMIKsFAe5AJJ+wCDx1q+ebDT/Pwc0c4NYnocgBaI6FF/BSVPFpB1BY3XGJu1zWUcztJ2qGUBkmo5LEIPmW/oW9geWi5YdeQO/ZqblqAXQbKNIJ2HcwQdEXSBUHlKCddPMQCmtBNX1yOeMq5Xay6MWf285zfXSXEhRjH7LiVSvJMAhDRBDH4KCCJXmn4s2c2ePCZwzxz6ChHz0xIro8r+8QYiG2NSS29whC8p03ghkss7L6WYm4nQRlQBiUJlQJWC0EVxJQgBRyJOSfsn1PcsGi4ccly3YJluW+yw6lAobogN4TgSSIopTHWombjynlk2IqrhNgu/JggmmQqlFE5zhCmANRScqrVPH285rPfepRDx0+xNvXU4rDlEDGG2DaIr7EE+qXD+5Y2ZkLM7z5AObd8DiFIHqe7oKU2KG1IAsHX2Fiz6BJ7FkquW55jz5LjpjlYstDTiYFqQbXgPaCJuiLYHq2Cfmc1mIXNt+BiZOAqIV4FcQ08jFUPXEGlwaSa5AMn24KHT8EffOVxDh19makPYApU2ce4ipgSydfgGyyR0uTO8KKwgyUWdh+gnJ8RYjZkBJyG4Bu0dpgi/1+foK0bJDRYlehZxaA03Heg4rp5zd6esL8XmHMt4HP365KaionAvAJ78X5/VVwlxMUQxzm0HDXTIFRVgVKa9QBfeuRlfu+LD3OKRWJsciRRW5JSRAEkYSRgkkfHFgktxuQQthsusrD7Wsr5ZTyZEFuHjBgjeaXDEJXLfoY23TKHoCSiUmRQH+faxYLbrlnirmtKrpvP1sCmNi+c6ew75JWQ7w2RHDqf4SohLoLJeELlFNrkjmhVxWml+a/fPMyXHnyaY2s1xWCOOmnibI0hJVJMGA2lAasSKraEpkYheNGbhCjmdxK4cMgIOJLSiEAUCPkPYxQURlEWlsIamrolhZZCCwuV5sCOPrftNRzcAftKmCeg4hj0IK+FvApEBBFB67OymKuEuAjGIc//Sx0QFEenhj968CXuf36FI6sTJHoq1TBOFaIdRmu0EiQlkIhF0BKRFIjBYyTluMRgiYU9nQ/RWQg4O2R43UOUQam8CiopQPQoiWgSVglGwbpUeByCxRpNv4D9fbhhLnDrvOfm+cC+PjhTorXdXDw7H1cJsU34vN5EXUeOro154NAZPv3NZznWOHTVo6AlrL2C1wOMLSlc7hglieBbYvBIjIgklFI4IkHUliFjJwF71oeQTIho+yRRZ4lAXtPQyObSOZIY0SPZPspZROUwhQsTdpop189FbtnhuHZHyZ0LhmGh0Vrn1dQtHc+rEOKqhO4icAJNgGdOt3zm4eP85688wYmpIolAbFEI05THdiMBFVt0avPjFIje40MgCmhTXBBrzg7/ufehiGAloGNDaqe0zRTfNMQoiHJg+0gxR3BzlNbQ04EqeargcTFbrfVW8dya5RuvaP7sBcXJaeqW2NNm518KVy3ExRAnPPr8aT793RN8/skVTgXL3MDRMy3R17QxUS3tQU9HSNsgEtEI1mhSFHxMiNK4sqLXH+I3TtL4dNaHmNtJ7KadWf8QcApi8CilMMairUVrSxCNT5omQpMSPsGewuPwSKhzACwlki7wtkejekxVSQv8y3c13LWU0FpjjEHrbC1muJiFeEsRInT3pdkiO0ASKEEkESRirOXPXrZ87eEXeOSZFzi+OsZVfYxWGA0ghJiom4ZeWWJ0F0CYmVsRUur0DDMzHSeEJLjB2SEjdiqqmQ9htMrvI78PNQs7dafZiWMEcFpQks95q6URNKJMdnRR7J5P/NyNFR/cpylsQCULAsEEQGOTJhE7QmQr9pYaMrJ8NStapfXZUUARI9RiWfWabzz2LF97/CUeefkUpzZqUFA4jUJyJFAbqrKiV1VobXJoWGlE6TxDIKuhRCkkCTGELIc7q46D7uesOwUQlXWZorLHkAnQmXnJklujBKsk/w6FKIMou9lQ+TwtCUfk5ZFwps1dvHXQElI+j7Nc2sRbihBaQKXsB5B81hoI1MpwbJz45rMn+dxDL/DEM8+zcmYFQSiKEqMNKJAkSBKUVvR6PdT5C00XucAX+gvnPb7Ie64URPL5nu86bIa1O2O0FW8pQhgEnTyamIfvFKlFserhoUMrfPrrj/HXh6YcO7VKDIGiKCmrcrMTRYQQAk3d4Ft/1lmb/b57lDlw8Z4Wya+7gAiz41ewJUkkSa92Kp3ZOJcRbylCpBjyfNw5sA5vHN7BXz1xlM/e/xiPnWg53A5JqqDq9aiqCoCmbbOzZw0iwnQ6YW19jRi7dUbJZMmPuxgCW451x7c+n5EoP+qolN96BZtskvbVkOMTZ0nxliJE23h8yrL4RjumzvDZb73Alx96iudPjWjtkOHyNbiywpi8LOS9p6lrRATnHGVVUhQlhXOd03fWQpyDTX5kImx9xSYVzjt+pSECcj4hzh/lZGZRMt5ShNBFRYtjI8HLY/j0N57lCw89y7OnRkySzVFCSSi9JbK39U7rJPPWWsqyyj7E5rXMt2W+vOde5LOvOGsJzh486zhe8a9LEU42v23iLUUIrKYBXjid+NIjL/Mn9z/Oo8fHnIkOXIUjkdZPbRG2gtIKozWSsv8QQkAQdJ6DZsxMNLPbcssvukObx7vfSUeM79lhrxOz//G9kGcyZ5+/pQhRt3B8He5/7AX+6Evf5rl1YV0PaU0fZQyVDujxSVQKpJiIKWbfwTlQEGIg+EAMMRNji0N5PjY50Jnki73q4ke/v5DzwlBvKUKc2Wj5wlf+is9/5X6Ojzypt5PYWyLaCkmRkpbrdvQwSmjqmnoyxbcerXKkbxbtA0gxfe+773v87ns5ed8vSPftfB9CjVsvpTJdlK1rOofzPIKXRD8agkArgNT0nYI6ZAWfLcApxgoGrHX/rKKlJHRRQSdgEhAT+Cn0ejkf7QohAoGITg0uArEiOc3EQC3gN6aY9RX+1V+d5tHDK5wZT2lFI7bcDObk5JiIJX/uc7qsk6uxeem672K7qxq7FUnBaYVRWccYQsDHgCoUURSmHLCwuJdqsANT9sE6giR88Hl62yX2XimciZ5/cJvh79xcMShylFJJIGjdRSojSJdG1rlM2mhzbnAiATEHNHQXHWt8/tyFBqcMMShwA9aD4bnTU759eMIza7AeFxj5imnQGKASsEEyGej+6UUWe14vAoIRhUtVzmhwGhT0BJjAM8em/OsvPcYDh05ycpoIukQbh5GESQGdIoiQRGei0GVmz9qWEHJGd0xA0ChtMZ1EXhmD6BypzEmYhtZ76tAiKMqyouz187qC0hht0M7msRwQyVlaV6ypLh66efKyJTR1IQN1cfYzg4KkA0l5SAEjiRIhqBWUHmF1xBjHhi64f7XlDw+d5veefoU/fuIEf/HIGl98quXp0yUbrUMlMGGMDStZkqZqWqcZVY50hQmhiZguZIzRiE5oVVNvjHjh0HH+8tHD/P6TG5ypL7wArwdKCVqDMRptLGiLT4o6JOqQ8EmBsSg0EiQLobXFupKEJpEXsgrjSDH7JG82VPJJBAgSESUYIyhJ6NStpihFo1dwukKnedaD5bkafvsbT3L/S8fZaDVDPUfPaxaN4UP33MIHbi24dQ4WOQNqkjvK9ZnqBWpgfov484ogQdKZ+yYl8A3BR+5/8Th//J0X+fOnzjAqDrCka6y6NCmUygtel4JW5qwFEUgp4ltPiAFEsMbgrKF0kcm0Adtnae8NLO6+hiYqlDF5cYxI00wwtuyEb1cGZ1Lgv7sDfu6mHgOXa1Qo8QSdVdkmeRB37pBBAN+2tKEhmUSalT5BICRoI1b3CPRZ15bHV+Ff/t5X+cpTJzneDtlQi5xOJSu64oXG8fvfeJTf/dLTPHS8YVQsIWYebD+PWVLTewM82dRk/0SlEeJXgYIvP73Ob37tRT793BrNYIkbliqcUTPX/3u2HBfY4lO9StMIxEBoW5rW0/iEl66ugzZoYzFFiQuRUiJWEr5paH1EGUsUYdrWtG1LYTs/7k2GSm0SIeJ1yIouQKPRKFRQEBVNqTkZ4K+eW+PPv/MCT5/ybLQlyvUxRYEYQXSiqSMutczJlOuGwoffcSMfvmsnewvoJ0GHSc6WruZzFtIVQts2FGRzfGrs+fSjL/L5J05zaFWoW0GplqoPadp5oJeCSttyc7REYhSCZKGtKXKoOwWPSh5DonSGePJ5diztYn7fjajFvbTFAlL0qdtA20xQyTPfL2mi4kqKEVZTvAwLoci5B1phAEGIaDyW1hqaQnN0DJ9/eJ0/ffAQ3z0xYUSP0g2pPNjxBFOPEZngqkhrE6cwPD12fOaJFf7ggTW+eQRONgp0v9MRXlkUugFjeW4l8v889Ar/+cGjPHGmoY1CqQWbIpNJTYp52fdSDfJ07FItrxNkmZyxFlcUWGOyntLXSDuCZoPr50rec8u13HvnTVy3ewliS0oRbTXGOQSND3HblmnbLX97TdCpSzlXnSlXIcvAW2AdeHEDPvdY4IuPn+Dpkw0bqaKOCmM01ghKPBIaaGtMbLKK2FZM3RxPrUT+4pEjfP6RV/jrQzUvjRVUC1fUOgCgSp5ZGfOnTx7mjx5+iWePN8QmQaqJTBCVUK3pSj5dOESc37bv3GUNg1IalSXaJN+S2ikm1gxMYvfQ8cNvO8iH3nErd9+wwM6Bw083aNspImCMQxtD28azApk3EbpJLTGGbrqpMSnfwQ1wdAxfefJFfvsr9/P8KFIMd2GTRVrPNE1Jcxaz1EcXFhMUadzQE0uJxbcR0SWrQfP1Zw7zxw8+zZ+/sMrDHqZX+HO/NCr59IMv8qcPPMrhM2fYUZUUviXEhkYlktIMKPNM5EqiE7Uwizs0DU09gliz2HPcdt1e7nv77fzEfffwzpsX2NWDItaInxLaBh88iUyKmTN5vhV6Pe0yDARaNNlNF4GUkzwUsDKBh54+zJ9+8SusDgecCp56PGG5qFioChobOaUaVnSkNgY/gaFbwLTApKZKiZJElMhYGZ7e8Pzpo4f43z73DKfWm/PP47KRBH7jzx7iM989ih03HFAbVNUqLDhwcxRhjioVSNGCvvQM47UgL3jl1cQUIz7k8oNzvYqDN1zLD9/3bn7qo7dww+4hcxpMBELN4vyAorB439K0LdY45hYWMebVcyi+X1BNCuI96JioHCAt2D5ffmGN//jXh/jqkZZy2MtupuhOZqIQ0wVWoqDqljipscOSNBNoqeypCCnLyZVgtcJazdv39/ixW3bzvmt6HBgEFDU+GVIqsaIxCqJOiNZY6fiqwGtPQQAcZ2rLt48HPvXQ0zzy3EnaaY2RLFOPxhCVRZJCicqzAZVmg+L51+ACGFMSY0RiwCjJeRIpksjjvFKasqpoW0NUkIyQdEDJhOuXSu67eR8fuGkvb9+9wGLPkExCS8ELp+DPnmv5zCtTookYsahUgXIUepKX5i/jrn41rEXhV+/Q/NzBkqHLqi+VpgRdoDAXdyoNGmU0SdtsAjufom4jG60ilsuoOuF8wikwOmcaSTNF6mmubaATurIEJAedNh1H6WJihiSWNhomjeK7Rzb41GOH+MPHj/LIcU/yA5y3lCmiTKS1gkaR6kTbClEytYogRCk5FS1/dXSdP77/Yb798PPUk5ooihZLqwpiMhBzPAUiiZQ1jdtsTevzmRtLlFwzMmVVI9qUGFdRt4GGiE+e1I7pxynv2L+Tn3zPXXzkHQe5+8BOFgc5LTASgIQRgIIphthFgQ2alBQhhBytVOqKNUQjoro6VR3UpsfZPT/7EEArcvqZs91vRdGKRllLVRY4AiYotBeM97jQUKYak8akuI5PI7xuob/9WjfjNvDY0Q0+8+RpPv3YOg+/DFI7IKF1jaKhIaECiHiSmgBTSJaTG5ovPjviT77zPA88/RzVZB3VaSMv2baJKJ6YAmhQzhC1xitN1I6gLR6Nx9CkMUrG7O3BDx1Y5mfuvpVP3HKAu5f7zBeGoAxN4QjnXPWOdVtPaHboBwAaJMvSO7MhovAotHE5c3myRlkMUGLxk5Y4nVAoT98J1ngiNS0t0V3ItlfDWBRO7eD42pA/fHyFf/udl/jGas1aTODBNcIoBkylKUuNU5EYAhtRc/+hCf/p8w/xuW89g1clc4MKrc4ql77n10Ucr4s1Zw1RPD4FdOGIWtOiaFFMQmC9rjFliVU1+xYUH7r7ev7+R+/jb969i+sc9D1YESKWmj4RvUmArVT4AeHAOdAqCWpWS1lBNA4xUBWOOSuYySmiNrRFSWstrdYEpdDGULiSwpZoMbRNzILObXztZUg7TdQtRAb8zsnj/NpDj/DZ5zY4ORnQmh7LUtKmKfgAoc9a3eMzL5zkN//iS7x8coNFt0hqDSetI2zTMm0XUQK9QYWyilOrK9ShxRYF1hkGvYr5YY/jx45w+44+f/fD9/JzH76bW3arXKda10ANKdMgnu/HbmWBdLOKHyBq6Bybyrp/IeFFSMD8wHJw3w7etm+ecdxgrAIyqEhVn42gWJsKbShwakilh7jgUHK2nO/3anESmRPBFjWrdo1dMuDYEcP/9cgJ/o/HT/HESWgasEYxjvD0Kc+fPHqS3/wvX+fEekOpoW8gieHw1NCm7sJeqsEF5Lz4V2J9tE7T1MzPDamcQ9opxk8pwpgdxvPhe27jVz/6IX7owG6WJFFaATeFsJGLmCI4D3NNF6rv+lwyCy5CAelGkos4NZfbLvJfLgU90wMoIilFYicfWx7Cu27czcfecT3XLRf0XUsMNVMfaHF43cenihAsOhgqKToH8iIMOK+1ThGrRN949sbAsE2kOM+h0wWfe2KF337wJT73wojVWvPcRuJPnzrK737jcQ6f9OigkNTQUpOsoaC//QUhkfNP5aJtUymlNSpFLBHjxxR+nWuH8CN3HOAXPvh23n/9kBuHhoEJhDTFq0hbGVoEQi4U5uTChTzpvouc/bn5+MLTuex2OeiupMxq7ELnUywYuHU3fOj2PfzYrcvcsaSYjxvIZAOtHbacJ6mSphVC66m6utznk/SCBkwGiqkOGB9ZahWFaApdUfiKk6db/uK5o/yHJ57jK8+u8tlHDvOZx17g4aOncXqADpogQqMSohMLIuh8Na8gNFXZo3CO0NSEyToLNnHn3gU+eMd1fOKem/jgjZqFIteCKC1EEVpRRFMStM2OpDrXr9p6024lwzldeMEFu/x2OVdFp0Q+GdXNNpzGECmABeDmefjbty3xsesWuGuoWVaREo21JaItgURIDUmm3XYAl0ZTBFIbmW4Ip6LB9RZxscbFEYvOUOk5/uzQSX7ra8/zu196lGdePsXOpUViapkmSG6IthU6TCmb0yjJwtdLfW0XruzltLqUsAg0E27dt4uf+fB9/PyP3sk79xcs+RpUQ2BCIlGYChUcqbU43cOWFZhEUA3xoitqW85nsw/zWV6pdjnQMdF1ZJ6zO62xJCwtOo5R0xUOusTHrt/Fx+64ibddsxvrG9bWVmlTiy0NtoJJe4YkF/vg50Fgz2qNNiVnlpY51VvmZO1xTKj0KtN4ilHyvG357TwpO1A7bmb/cJlyvIoaChv9Hic3AqOTE6ppw8JiwOjtffzzCfJqX77xnDmzxtrqGnO9Hj/94x/nF/7Wh3jnrQvssGBDDTJmnEY0LqGsw4ihryoGqsQlQ0zQ6MS0Sl0m5fbO8c2Gtpau7EwF9FA4DAaFBV1BOUdML3Ogv8Enbl7mF99+C3ft6oNsMPVjolbgejS6wrc+bwJiEq1uWZMNRqZh6iK1FRqtCNoyNQUC9FLDQMYYWmplqc0QsQsoHG09opKIGI3vL8DCPopyiYHRDEowhTBGOLkeIHhsbDHRo1Lo4hLSldmwJFWQdEmcJEQcqTeg7lWsxUhoA84niiAIidjTrMoJBgsT3nPnAj/3wRv5xffu4T07YI8Ips676OB6VGZIRa9Ta20pFGlz2UCHoUeBpZ9jNLpBVIukipQqIomop0TtiZTILAp8hVqMhiQ6L+fTBWuTJd/yXdz/vOCtzoKfHJIGg0J3TlrWA2JLtK2gZ1nYYXjbDZaffcf1fOymnVzTCzTNKmvNFFPMo7TN2c9ZTYE1NjtmIkiKSMwd5btIppWYi2SoRFSaqAtEFyhl8LHFiiBogi1I1RzK9nHG4qzBFI5oLHWyeXEuhrxqm7oPD5vfhWyOXalReFI9RYfEsD9HspaxJKbkKfNkdZVre47333wNH3vnbXz4rhs4OJ/rNhWpRmtIxpFUgVZFd/N0V3T2jztZokZhN38voCKoiIgBMdkeqdgF+y2ytWeuAGYZ55uQBLOz7X5xvt3ahnuuUHYPjZ1jZGE4Dx+71fHf3LWXH95fstNNaZsxPmkoeiTliEmjxdGTiipayqAoPLgY0aG9wPl5tZZQeW8qZXLquzaIKVC2RNkC5Sp00SN1M4OUslOsELSSTrUYUclD9OgqIGmCno7p1Z6BKUllyYaDkfIYIgfKHj958838zO138qM3XMct8yaLb1K3U44tUKYiit1+JO4CyAUd8YOCbRAiF9qoRROJOBoGesIP77f8zYO7+LHrl7lm6FgZncYbTVCGmAziDbrWqHHCtooehlJrVMwrguc7QBdr3bJYbkoj2iGmQGxWa+ligC4GJDRRyAtrkot/SVcRViWfM75TYOxHRKkpFLgEk40NklVQgDaePUPD3/3RD/Ar73s3P3HzLg72oRdAJ8EUFkw2wUm2Jbm8EN0Hk8t57/cJ2yLEVLKHMSdAnLIRVtCu5sM3LvPL77idn7rjGpaWRozbVUbtmCgJawu0KfAevM+OlTIQyDOC7SDXXsukiMqSlM0bmrkeFD10OUBXQ7QrwTgShhCFNkRC60k+QMyUsjrRBki2R+sso+TRVhHWTzPvN/jAzbv51Z/+AB9/zyLX71AYA8SYK9jqAEpok9D6RGrBXiYpNt9yTsBsawDtAkN52W2bl/kcbIsQA6CU7B2IqUjVPNgKNNyyCB+/fSd/775r2NP3mDQCmaBNohj00f2KRitGMTKRSNrU/W8PW52kpHSulqK7BCFbomyJLofoog+mIKBpo9DGLt2uCyFbrajsAtNgWVfQ9jW1P8PNA83Pv/0W/tt77+C+AwP29IHCg22hiMRSURMYR08UsNri9Da1mR3knG9no6bnvmDrkyvVXju2RQidpnnOrYRARak6Ib2Bog+37jL87E27+LFb93D7csm8muCnZ2jDFCkcsXS0BlolqCKLPS+g80Wa2qQ6+QN2M4esUjKgDcoYdDlAFUPE9RBTEJUhSi4qurUsT2ryknCuqzTl1v19fua9t/Oz7zjIB65Z4ppepMcIb1qCTQQNXmnazp/RWmNN5zpkd+W1Y/PjdA+EzmJ23y+8DJfdLgfbIkSWUiVCdy2qNjsWyYC3MHSBuwrLT99xLR85uIdb5i1VWGcyPUNQAeUcyuXZg+n2tjyfyxdrnV3oNBqzfTBzT+QvEDTJliTXBzdAuQG66KFsAdqR0ISYaH2A2NJXgT2lcNfuHj917y389Htu4+3XzjMoFVqyPsFrQ4vGd0OWFUehHE5vSXs7O5W5NLZ0zlbbMBsumHVg/nYF22vHtgiRnCPgsAK92sO0hRQIKudxaAHaxAd2Gv7GwX18+JZruGXXPDbWBD8lkTDaYrHoNl+A7UCR0F19ZyWpKwPcydbSbMxNeLFEXYDrYashRTXEVQO0KxA0bUhMG8+wl9hVNLxv3xx///338PfeczPXzicwnqxeKZHUx1JhpEB7hW0UfVxWZAoIiaA9jW227QvlV5372u298/uPSxJCgBMUmRCtyck7RY0vxhhqKhJaShgsoBvhjnnNR+66ho/c+w5u2LMTFT2+nhKbFmkicdxuWyemJLuUCskzk24GgeQ2K6gVRBGUQazDVBVFf4ir+t3Wy5o2RKZNQ4xn+NA9B/kHH30/n7hpL3O+Qfl1gva02tAA9RhUA2WAEkOBzaVtPeADIbZ4HQnmXCHSa4Fcrj3/PuCShFDAEJ9TvAqgLMHMI2GelPoELLWGVdUSBy3RNuyv4BPXWf7pD9/Ij16n2FusYNMaWitiLLM4NYbcUkDk4i3TwXQl/wypi0Xkx5akDFEZCguFzWHXaEomYpFqDlX2wSjmByU/cu89/Iu/9T7+/vtu5ObdFb6C5EowBhtbijShBEwPjNuM0+WtdTabwZiCAkdFLim0HeTg38w5trnavXR+jiiikizzA5KoK9YC0skahaS60of59jp7blsesx1CAJQENJGkutCsAaMUqqvaHgloM4u4Bay0LBRwx4GC/fMFPdUiqSaqSHSzHSnPjp9wrjM0Sys927bMNGZxic52JFFE39I2Da33tFFoIiRToss+rhpQDefYs28fb7vxRm7YucCwyP+zkYiYAnQJSSMhUOpOPXbRprKwGIPJOU7bgpp92+wQjXRZ5mdH+7Pfr1Tb6vfK5jmcf1LnYluEUJLD2YJs7mSvu3i9ji1FaJgHrBdscrSq4EQLjxyecvTUiHoSkJiIytO6FtGcrdCuFNAV+lRny32nnB9wkY95YYspEWMkxayKFqWIqBxVLAck22NlGnjgyJSX1hMxQU88RZjik2WqekxUhZ9VEn+DTPqr/9mZg/zmY1uEMOQFEUlCG1va1JBURGuPUwGXQg7ijBMxOjYMPL5a8+/+5PN8/YHHWTm5gW4jpJpWjRCVs8rPtjyNFEwOQmG6qrAXMvhi6PdKBv2KqqooXYE1ljYm6qiYJsOZaeKZw6f4ra89wWeeOcnRkUCQLIOvFW0DXoGUBjHTbhXojcBsbjR71h2Rji1bg1VXoF0OxbZFCCUmy+NQuR6CA2hzDgcxp+aJhmrIZKD48nMn+Fef+mP++sWjRDNkqIeYUUN74gRzqkWn0I0FZBMqZMl4LlFynoW4NGKMBB9I0Xf1n7tZqnZQDAhuyMlx5NEw4N9+9XH+z899lydPGJAK5zX9FoooRDxTpfJpXUHkbuk6p+v8PFxuf8b1/cL2rroC7yMpBqzOYtIkkboNhKhA90D1ORLhP3zpcX73i9/gpWkk9ZcQVRLrSNFE5kLEH3uFNJ2QfIMEj8SwGWOYhYLzzZKJsp3WtJ6m9bRtIIQ27yuBoLXBugpT9GhF07Qlq2ofXz1m+V+/8DSfemyN4xp0TyjSCN2MKSi2L8m7LGwhxuxBRxD5ASDHtj559lCzzzBbJCdpki5p7JA1MTx1csLvfP1xPvvIczx5YoMNr7HlgEkTmDYNxEQZFXbUIM0kJ/p0m5Wp4DdjDVpSjlDCplG9ZFO5lI9SmU1agep2tEkpEkXwUVgIJTrN81IzzxdOK/7vJ47w+08f4rHVVRoUlVTYUHTW8I3B1j7fJPXmLy40+6+nXQ62RYgIKKcxRneFw3JqmnIV68Djp+AzjxziP3/9YZ48WeMZQmOgTQQCsVSEQiNaU5ke0rSkZoy0E2jrvGVyzJuPKOnmEXKJKm9boKzFOocxZjZRxUgk+YbQTpHQokRYSIJtAp6C1XKRr5+q+d2HnudPnzjCoycj6746u4fClcYWjouc60u8Mf/w8rAtQnjy0jKSwHtk4jFYWoFnjsOfP/Qsf/itpzjFAqO6QiaWRemR1kYMF3oUu4bEhYppYaEcEENDbKekZppLCYQWHVt0irlJRJPN/vmsv1gLUQgJYkykkIllVdpc9i40zPcdtYzQZkxPjanamqHbwUtnhnz6Wyv8p/sP85VjLS8LtOdfgNeJTVsmnCXCzCJsGSp+EGixLUIEEp6AbxvwEVX1AXj62XU+++Vv8Sdf/RZPrUyY+orKLDInfQatYs9wjqQia6nmNA1nVOJMCATfkHyTncBwdqsClWIuDyhZ+b3dS5RXOFTWQ6S8aG5I6BRQqcWqRL90rC9B0xszn1a4frrOdavCYrOf0xv7+dILgd/65mP8u0ef49T0ymWnvyZssuYKtctAJkQIRN8iwEaTWPdQJ8gpOw1Dasrk0cYRygUmyvG15yb80bee5S+fOMJLjUXvuJZSexRjatMwKhITDRIVrlWUXlGIQltNcgYpNOhACBuMNo4xWj9K3ayQdIuqDFI6jBeKqCiUATRTnxj5QC1CtAqcyptgyCwtXyHK4kXTJE3QjqRLWtGMmgCtIkXHlIJ1A+umprVjpPSMRPHsac3nHp7yr7/2Ip85tMGxtuukpoXQGcgI3geIk5yQIy2krS07ySEmpiEy7ka+Wdwl76KTp9s55pI3QUnaEpUmXMHmw0xFlm3RrH53F/m/qAwhhw3zwJZJpXWWWOrZ8YgOEZcMQVcc8/CFp1f5owce46vPHOboOGBMHxsNTnLQP+jYLXdnj9RGhYsKK13lGVtgtc0b3UtEfJv9iNAi3hMaT1M3RFcRbElQGpRQOEVpFUYJEoQYFCnlpNI8LufwbEQRJMvvksrh4cZH8CAxr2JOVc4NCaYBExClGLeaoyvCF5+v+cOHXuHzT67w0qiLwjVTVOtxKaGVIqiKgMbHRAiRFFLnfXfl8LbsgnOOGe6ilTliqTZ345kJ/q5o6ySFGWcthsyeXciHLsdFGZTSpBjoOeiZHKGWlDIzfImPFccn8MDLZ/iDbz3EZx5/khdGY7QrWbQF5doa6oJExovDYTBJoZPGUdAvh5SmQlqh2RjTrq/DZMrIONa1YSSRqCL9AuacphJQXoiNJcU+8hpiFtvB8Ynhq0+v8UcPvsJ/fWaNZ8fCNNSQ1kA2MAqC1rQ4anGMo2UUHS2OqHJo3WioDFTKn0uIi5ly2e7g+MZDo/NdlQRiyFsNWiKENpsc5cAUnJ7AA8+f5I+//QR/+cIxXmxgw2TdQU9gMYYLUtZeDRISoQlELxhVMuwtoHFMN8ZsrKwQxhvMW83aaJ218QbTtsGHFu+brsIbGHEYKZFUXJzqrwOTcWQ9zfPXryj+zRef47cfOsHzMkBcmYeEdkqV8r7axhl04RBraHUX8TR5iMjjTL15dpt35uazLbgYUd4E6BQhJAXaUBYFikSYjknRo4uKBsORFj7/6GE+9aVv85XvPs+EOeaXb6LqL9H6XGux7OXFjVl9ildt0OVyFERt2fCe42sbNDExNzdg58IAlyacePlxbnBTri1aBqGmnbasTTXrUtHYAakowUR0GndbHV7EqbrMtqgCfSKqmucVt4d/843D/IsvvsR/PV6xVu7ModrpGkWa0icwMNB3UGowXQbfVpw7xaSbHc1+nkuTNxs5L0ODmK40sESsFjCOicALa/C733yeP/nOEzxyZIXRRNFLA6rg0E2ibVtGqWVkE3E7y7coVFngraHW0BoNZUEyCZ8maFlnqddyy74e//DeG/iFO/bxzuUh88bRUjE180xsj9pA1GOMXp1Niq9Y8ymhkqdkSqEDMlzkC8+N+N+//AK/9911DjUlPtrs96QxOk1xKeIEbLf6J5KHYlS5ZU3m4gEjke5/X4Scr6tdBvLwpjuxh1J5EmcMrRgOrSQ+/+AL/Ml3nuCBo6dZ8QrnBvSTxk1bdJtzLILRrKkssTv/4l6sJaOIGqLWYA3KKUKaQlhjR8/znluW+cWPvYufvXOZv33Hbj52237etm8nfauZ1jWjpsZLi7IBbabdxPPKoS3maAHdrDMfVthpPG1QPHBog9//1mF+58FTfHOjz4bPCTfZJgRILSo2qNgiIiQcnvIiZ7eFGNJdle75+dfq9bTLgVaS35yAlDqbrgynRw3ffuYIf/y1R3jqlRGrQSOuT1kWOGkxfkJBpHAGbRxtMqQt6/vfq4UQoCtAppQQ2ykVnuuX+vzQbfv5qffdxs+//yA3zCfu2VvwY3cu86N37+e2JcWwXUFPV9ChznWi80rbBTfH62mxP4+3Bck3uOkag/oMy6VCRPPwkTV+74FD/O6TIx44pXl5XDFKFahu9z4JKPEoyYKXs4HPs10k3cPZzOjsL65wuwxoNRvXgSbkWk1RNIeOrfDVB5/iuy+dwbhFqmoBZTWehkaNkaKhqKAqLIUuMN5Bukh5/os0FYS+tvS0Q3tP2Fjj5uUlfuZD7+NXfvJD/MSd17OHdWhX0brm4B746F09fvKOee7dFbjWbFC1U5I3eL0D6YS7VwxphKsMUg3Y8I66VjCpGehEfzDgFI5//6WH+J2HzvDZF4XH12FdAaoAo0GD6vIpL+iXCw6cRRe3vIJfrx06hZbQ5RhYZ3I5f1uw3gRObjQsHThIXw8pkwOBOtWcCSusxjPUMkVJwgWFGc+Wsy+NobWkSY3fGLFUVPzoe97Hz/74R/nwPbdw00JJGTdgvALDPqnSGBLXDuDn79vPL37gIO/eO6Tf1oxWPU3akXMlryD69RHi6AQb0TIa3MhGdSNT6SFtjWlWcdTs2L+b//fbh/mPX3uBzz8+4ZnT4De1Hbm8gj7/gkju9AvwasffBJhP/savfTJogygoVI5UJWV46vg6X3/uJEd8RTFexaQWZYCiIJiSNhmMrSh0gQ2CjQHtFNHkWYRyloEr6XnB1J62mVKrgFrqMZ4ErARu2dnnx992Lb/8I3fyvn0V+0rQEqgFpLeEhApSFquVOjBnEou9krKqaLThhA+cGK2xVORE2WkSag2UCUkjdGow2qLdIo3Mk8upsRkYerUmZGdQK9upM7rNX7XJGgscGsPIDFhrAidXVjlzpgYzpN9zVEWRk5xp0dRYSnSKnJk0PHIm8NjY4VVWkSvRGOUoU8h7dm8JXL3etuGF9+63vGOPo9Q6122VhFI5W12rgCg6baiCHIfoVv9nhcck+8TOGspCsXbmJElnPWWKIK3ChoJSeuA1MQriwJtAiDWEFisJl4TURnxKNJJQzlKVJbGuKVXN3dcv8/H33sHfuPdW7j1g2aNG9MM6NrWIcTQ5GtJ1n+SwcL3G/qHmvTfv4SNvv4H7btnJvFtnIkItCqWgkABtizEVUgxpkmYyWUenUWeUz+ozX60l1UOpAotgU41JdZ6AGYfoEsQiTWK+X4JWvHR6wpeffIU/+Ovn+cLzDU9vwBoGj2DwxKaFEDfFRXlGlbJlli7ffuZYXKRjL9oumM9f2HJNoGy1ct+e7ecctZZZmdlN6JkjlVcLMoM0kcW+Y/98hRmfYOoUTZlj7aoVzCgyiBbrBe9bJhKYloJXNSY1lG3ANZGmDaySGFUWBj0WyorlOvKBa4f81Htu5CfuvZG7r68wAqGdolKgsMLQJEo82oBygMm7/DRtjUuRG+bhA9f3+Ju37eOnb1ok2oTXgZ4OzEVPVYPTy4jdTUtB689QxRfRcmXXMYfNGgvKY63lWAN/+dwJ/ujBF/n8U2s8diKy2ligoA55yk235eNMG6YRUhJCTJsO+ZsN8z//2q99MimN1WBEIOaVvoBmvUkcPvoKh31WJw+rIQPdI2zU2CiUhaOOntVmg/7OeeYKg/ERmaZcmGI4x7pJqJ7Fppb56ZgPX38D/+in3s57b97J3p5hqEGRsFWBKkwubpFaCDXG5WIXiQhKsNqilEEny5JW7B8abt7Z54GT67TBY7wn1kKv3EWbBviQKCvYsWCI7UmimusqaF0ZlKOT6BSJrqIp5pj2d/D00eM888IhpuMJe3cssdAfYCuDs5YTGw2PnPA8O6konUPHgG9aGp8oi4K4eRtfAtt4CcDIC/ftt7xzt6VUs+TklMslKdBERKmuJkgeMsxv/PN//kmlsnXQMUJsIUVc1Wd+cQdVUfD0sVU0BhUSTdOwY3k3SSnGbZbWF6UjxZbpmQlK9zDlEG8do9RS9RSMTnD7fMEv/fC7+Ls/cid37IEdZaRSKetZldmsKj+za9rkchsKiAoEhzIOjYW6Ad/Sc8LyvOWm6/cg4w1OrkxZZ4G23EFKLSaNie0603ZKubibFNzmlO9KoIwBn6A1JanXZxoDOEuKidOnzvDy4ZOUw93MLVkKA6drxZMriafXC5RE8DW+bfHJ0O/3iV0y0qWQu+7SGIXLIMSv/cZvfFKTV5FVDHl48hGUZjgo2bVzB1Wxk/UTJ1lbXSFZzUYKxNISVEIrqLRGJjWWeVocU6NoCyHEEeXoJB87eIBf/KG38WN3HeCGHYqenaK0ZKW1yqV/fVIE0SRtUMZmxydYlFhEObwyND4vp2utUa4r8mAiB6ywe9BHVMGRjQmnmhoKIUhDSoJWFT5UXRXRS1/w7UKrHkEXBKUQFRkMHDo2hKYhiqGVAY8cOkOKDqsVE7G83PR49HhgOhmhUx5utKtwhSN1WtBLYbuG5DIJ8eufNChUStlrNI4UIoKmVzoW+4ZdgzlcUtT1iFPjNTYIjFNAO0thDCYkXCsou0hyjta0JBmxq2z5xG3X8wv33smP3bqf/QsKw6gLiCp8VHjRiNW5PHi30CYqWwfddlbD5ABP6/O6vHEGZS1eCTWBfhvY1+8zN1chOnBi4zQbIdAoA7rEJovx6YrL6xvdI9kCYxVWBUyYoHyNBqIqWPeOIxuJ0dopQjNiHDWvtD2eWgVpG3pOUZQl2BKMJqXt1c7Ybl2KUeC1E+J/+fVf/6RRkhUTCTAOEb2557UVYUehuHbfDkzheOX0aVanNdPW41yJFkVsA4Ut8BhsKQxLz4GB8OGDe/gnn/gg9107pFcAMiWkFqUrfDK0MSf+OJsFsnrmQKeOB757bjqpQYLC5FVG0RAwtCh6Pms49i449i9XpDTl1PqUcTD4aNAxMlCRpLdzubcPbx3KKKwRbAq0ozNYAWscPmpGPmKGC5w6eYKN1dOsTzwnQp+TaUjPKgaFRhtNkxRKq6xA3+4JbuN143gZhPj13/i1T2ahSp4CofOOckqbbDVCg7GRhb5l374ldu7cz2OPPsWOxWWm08j6aEpQCjM3JMoEpid4x+4+v/qRe/knH7+bawqFVjHfndqAGzCNGmUdReEorc6111LIBdxU3i9DyCuHyUDMwT8qk1Msdcx7oWgNShmUc2ht0Cqwq+e454Y9kDQnjhxjZWUFrCWVV86ZnKE/cIQwZby+Rj2ZsjC3jFIFTRtRWtGfK/DNGtNUMh6ts7oxZk0GhLmdLPQcpc6Lg+MmYozpZEyXxnZ9iMsixK998tc/qZGOEJo6KiTvh5pfFBtwE9CJwpYszVfcdvAdHDl8hiPHV5h4T6ocU5MQOc3H33krv/wj7+YTNy0zJwmlpmAT0RR4bQgJtFWYTtKvpUVJgyZ04V5BCwQfwenuro7ozh4QunNNGi2ZNGMFrVKgLFo0vQTXlJrlSiFKONwEVvQAk7Je80ohtqdIfoLWDlcsEPUwZwsrBXGCNKfpmzGxdw1Ok2cWc3uYlvOopkWaMTG0NKLQRqG6GNClsJ3XcJmEUDFFUVsIEbvNcDatRvKg2xylUBU1ivUWHnpqhacPH+PY+oix93iluPfmHdx1YC837VhkuZrZ/kS3K0f+F7Msvs0QS94FJ5/NbMzIgp2cdSuwJWy0KVPj7B+ZdLMkB5g2gs/CniO1cP/hM3z20Rf5yjMvcZTbqGzJgmkoZMp6PSIV87nQiNKo0KDClKTdRfWG50OkyZZbWZSyKOXy+SaPhBqRGqOEyBAVpvSKkuGua9Bzu9GpxZJ38w2Sh83ZMv6loNjekHGkEf7Ze0r+0Z0li6aLLKpA0CURKPHZBHeRSwCVtrMV3CwBVmlEGwIw8bA+aVndmDKZtkTgHdctMSi///tGNV0CoJVMBnyCsk9j4dAafPv5V7j/kSf41JFdeCnoqYbUjglaiKYHqsAkjSbhjNCkuK0SFjK7iLOfIrlTU+eTddNIk1piFFxvyNLyHvpzC0SZ7XojIBFnNPF1JNhcDDNC/OM7CpYMnXXwtKpHBHoECDab6u4zbFuMmD9qfqCBnoNdCwU3Hljg9oO7eNstu+i9CWSAXLA7VzfWYHX2PDvSL8/Du27Zy09/8P188KaS3f0R4zDmdNKEwTJKaaQZkep1VEhY/do3os5d2Dms2+rPizi3Fxx4c7A9QmiD0rlQZ0wxE02yc1ck6CvovYax7UrDpW7hhvyJohG88kA+twNDuO+Gkn/20Vt4297EVFah38M3Jdprknha6wk6MTk9RsL2nLtNdOH/cw5sfbaN1cxL/f77hW0RQsh5BPmJkFJABY8RjyPiJGHzMsqbBAVJkUKkjZGoBekq2VqB0kNVw22L8I8/8i5+5d476E9P0bYrTAuLGS6h7YBxW1MXDUnl7rlke7U+lE78sjVlb1OAs+VNsz/yan/nTcC2CEF37krrHJvQCmtUNxPpdEHyRiVFbhOSq9gmEeiqu2jy5iezVhl494LmV++4ln9y783M21O0ZUurHCpZjIG00yO2y665VNvsz+7AJgnOO7VNuUr+zVay5KNdTsyrMuz7h20RYsvnR2mN0lveJglCIDVdDes3AwrQOaStVa52kycgkj0fLWASpYd54F27Nb/w7mv45fsOcnCokDBhSsD0LYWqO5Kf3/vfo83u/s0Tyo82n7/aZZkdl61P3lxsjxDnlVXfnARKXh5oI0x97O7ONwE6R7G0sVjl0CkXv5IoufaE6tb3fdd/pefgXsP/9JEb+DvXLnH9oIFygjihtx7RYSaT30Y7/1w6zOT1s5+ZNLMEZTbJdDGL8mZiW4RIMSc2qtnHELrK9A7lSmzVpxzMdxuif/+RVEJUAkXegbgFmUZCHfEhz/OjznGLWjxntEfhWWzhn/7QAX7l3gPctQPi2irDsIySrtrudiBs+gnndvj3Qke48w//AGBbhJglidKRIcSs9smKnPxT9JvnUjbiyduqkxVIpsAVfYqyjy1KxOTNV9d6EQrHjtjHRmiKht5Cw9++aZH/8dbb+cieg7yQCl5z7nd3959zYOuzLaT5Qce2CGGM2SSFUrmQuNFnVVama28WJRw272qTTUQ+ma58olKq2x9I0yNREFBEjDJoHI6CfUt9PnD7Ir/07gG/uP8YQzVAi8PKCOJxcG1exEpCkTxWeRobu/qSWaa2OYR2z7ce39y2oXN682s6iswmbzPibKcFUEpjSoWpAqI3IK5jQo2LoGNFCH10vU5TC43XkBpIZxAV0EAZgWRpba5hOcO2CLFZQnDmv+m8FqG7PzBrbxasynUjYXaCXes+qO74UUTJuYtdON2gkaQwDvYsa95/64BfumeeD143YJeLED3ROLxEUpKugKrL+3ZLfXaWIOQUg86NzRZBdSTI1mP2NSNC50FsedztgLON1qiIJ5GihtYS25ImFtTK4I2gdU2ZRuwpagbWdJchgvZZp5pyDAmh2yDurPV6M/vx+46czd4tpnSdFUMgpRzgXFzo8Y633c0vvbPgvv0w15sjuD14X+BTpLaWsatokqVq69mWhhfF1s7uDpwH2RxqpHMu6X5eqrUmUqdEM9W0kyHRL+P1Lmo7YGIirVlF2Ve4dU/B9YtFlh4oBbpCKDrrlWHx56g531KEUMaAMZura7pz7lSnRLYKFoaWj9wU+YcfvYWP330QNgLoebwtaVUiEEEZmnEWyMoFHX0euhfMLEc+lMlwPoQLhNMXbeW4QKaWsVaMBoJbgB0WdjQRPQ680gqPlAW3HVjklp0wsOQFLCoiZXayu//pUthS5O0tRoh8UWYDZh4Gy8Kidd7DLfh83+hhj7v2OH75nQv8D++/gWq82uk+A4R1YvKYhVtySeQtxn82w+i8g03M7v6ZVdg8vvVFrwGDyrJQwEJq6fkRdVjjmJzmsFpnbIXd1U7uG97Ee3fNc6DXFfpHI+TdEGOnU0XNspLP4i1FiFk8RVIi+rz3l1ZZU6GJWbEUYZ0BhVW8cynx9+7s8avv3c915QQtEyCRRGP7Z6fZm/2dn3U/8oC/SY6OC5vE6Q7OSDR753YajIEpUUVqFKsBJm2gFM8dQ/iZ6/r8s7fBvUuKRSuzYtRZtDzLv9F0ksJzpwLbW/7+/wkkBpQih7hjwhidO1UpYlcayDrLCa2ZBwa+hWnLU2uJ337kGJ99YYNnVhMxVAx1Sds5lmrzsnajswgiCZGESoKKNTFGyv48i8t76M0tkER3jrqAJKye1d27NJL2TLynCQmtDTurkpuGltvnNHfvsNy9u+SmZZhTgA4khCgKhyVKLmqCESq67S112VnPtxghNu8xkW6vjXxB6foFETCatVxYh0EI6HYNTOT58YDfenCVP3tyjSOrDX71MDLcjdLFWbWRZEIIOUIqdIQIU2JKr06IlLAmC4230xmnXUHrpwz8BjcUkR/ePc/Hbljmnj2wNMh3/iSu05ceWEutFZKg57PvlJzQ6qwhcYGzftVblhDdw1zCsHsyU2spAMskQSQx1A0qjkHP83xT8KnvjvkPX7iftTBhpHaTKPLbAYXk/QI6C0FXrvksIeZY2LmH/vwiUbr0OuiKtHTK89mx74GjJnLrfMHHd/b5xC7Du3dCNaihCNnXkbzdAyHLyCadNqQ36eabpdAoiBj6bSdU7U7mLUWI4H03TORpZ4oRPYuwqmwhkvfooKFQtM7SdMlCw5TXQl6cCP/l5XX+zTee4uQZS/BZEXwxQkhXplmHmhAzIRaXXz8h/vsbNW/bN2DXsmHnHFQKTKgpAGdyRd8EmBpikQlhgP4kgWqhTNRd0bRebbDF5ojx1iJESinPODvzKEnOSic7QkjqssmMImlN6Co3lp1xCQKHa+Fbh1f437+ywqETG7T1Bt57dG8OqeYZ+0hsphAnDJ1gvcr13YuKcmGJ3uJOiqqXyRg90npUjNiyIJmCRjnGSTENHitT9leeO+Y19ywX3DJXcM+yYWlQYHu5IwVQKWIEjMqEF7IxSBpCF0S0oXMwDUSVyzaamHc4mF2HtxQhrjR+89tTvvzwIR4/dIRjGw0y3E0qh0x9C80YpMkllUd5Bx1XOqq5AXNLC5S9ClDEEElBUKIwRYFXmgZFUoq5QnHTQHj7TuHdy8Lbl+HaQcS4flcA9crjKiFeB0bAZ767yqe++RJfPVyzKn0ILaQp4NFGY6o+fjULlN3AsTRfsDBXoY2hFU0rjqR7mGpI66doaViwgRuGivfsHvKBayruXIYdQ4h4NuIqC3oRp17DiuxrwFVCvB6EM3i7xJeOwb//q9P8l++8RBCVa1ngs1p9Y4O5+SHOGsRoTNmjnF9E9xaIto83vayEdxBHx3n7vOLj+3fw49dY7twJOAFTExEUBVrs+aGDK4qrhHg9iOuA5Uzs8+gZ+NQ3j/DZx07w8lhAFEq1LBXQnngOU/Rwy9dT7L4RmVui9pCmI/ppwq4ysXvO8bM39rl5ybI8B3vnhKWi7eT8FujhUUwDDFwOpr0RuEqI1wNpQTwIbATL4yuKP/z2Mb7w5EmeP10TUFgJNDFANYdb2ENvcQ+9QcW8Duwz69w2mHDXsnDrTse75ucZVJZYJsTlgiKkhAoWLRWYvHVDYbpEqjcAVwnxOhB8jdWdRC8Jje7zncMb/MWjx/j6sys8ccqz0hj8cBlcRVU6ds31uHFnxe1LitsXPXcueG5dSuwdCuhht1CvQRmiUvgEKaa8bajWeY3czuIlVx5XCfE60IzXUNahXYmQMLFFK8XhNc/Xnlvlz59Y5/l2kTVXYiWwbD0HFw337B/y9v1Drlu0LBQJKw0SGzbKOQyGXpc6AFnkIwYUPjursQW70NVauvK4SojXhcC4CUx9wijF0sBBqiEpJnrAaQ3PrcO4ycGjXQXsq2CnzWuPKIVXUHf6X7q4ASrbiSFgG/IWmNpDGZiqSMkgV9J5A3CVEK8DdffTxhodPVEUlMMs4pe8V7iJNbVVedqpDIVyOUlAgBDzBs9Go63OudGbcqZAItLGXCJZqR62K4F5sQLrVwr/H4c0lK/lfEBNAAAAAElFTkSuQmCC;" parent="1" vertex="1">
          <mxGeometry x="-80" y="640" width="53.66" height="50" as="geometry" />
        </mxCell>
        <mxCell id="fSjYENabkBev0ntUEMhD-26" value="&lt;b&gt;Dockerfile&lt;/b&gt;" style="text;html=1;align=center;verticalAlign=middle;resizable=0;points=[];autosize=1;strokeColor=none;fillColor=none;" parent="1" vertex="1">
          <mxGeometry x="-176.34" y="680" width="80" height="30" as="geometry" />
        </mxCell>
        <mxCell id="fSjYENabkBev0ntUEMhD-28" value="&lt;b&gt;Manifest&lt;/b&gt;" style="text;html=1;align=center;verticalAlign=middle;resizable=0;points=[];autosize=1;strokeColor=none;fillColor=none;" parent="1" vertex="1">
          <mxGeometry x="-80" y="680" width="70" height="30" as="geometry" />
        </mxCell>
        <mxCell id="fSjYENabkBev0ntUEMhD-29" style="edgeStyle=orthogonalEdgeStyle;rounded=0;orthogonalLoop=1;jettySize=auto;html=1;entryX=0.5;entryY=1;entryDx=0;entryDy=0;entryPerimeter=0;" parent="1" source="fSjYENabkBev0ntUEMhD-24" target="fSjYENabkBev0ntUEMhD-16" edge="1">
          <mxGeometry relative="1" as="geometry">
            <Array as="points">
              <mxPoint x="-53" y="590" />
              <mxPoint x="-123" y="590" />
            </Array>
          </mxGeometry>
        </mxCell>
        <mxCell id="fSjYENabkBev0ntUEMhD-30" value="roboshop" style="sketch=0;outlineConnect=0;fontColor=#232F3E;gradientColor=none;strokeColor=#ffffff;fillColor=#232F3E;dashed=0;verticalLabelPosition=middle;verticalAlign=bottom;align=center;html=1;whiteSpace=wrap;fontSize=10;fontStyle=1;spacing=3;shape=mxgraph.aws4.productIcon;prIcon=mxgraph.aws4.eks;" parent="1" vertex="1">
          <mxGeometry x="520" y="630" width="80" height="100" as="geometry" />
        </mxCell>
        <mxCell id="fSjYENabkBev0ntUEMhD-31" value="" style="sketch=0;points=[[0,0,0],[0.25,0,0],[0.5,0,0],[0.75,0,0],[1,0,0],[0,1,0],[0.25,1,0],[0.5,1,0],[0.75,1,0],[1,1,0],[0,0.25,0],[0,0.5,0],[0,0.75,0],[1,0.25,0],[1,0.5,0],[1,0.75,0]];outlineConnect=0;fontColor=#232F3E;fillColor=#ED7100;strokeColor=#ffffff;dashed=0;verticalLabelPosition=bottom;verticalAlign=top;align=center;html=1;fontSize=12;fontStyle=0;aspect=fixed;shape=mxgraph.aws4.resourceIcon;resIcon=mxgraph.aws4.ec2;" parent="1" vertex="1">
          <mxGeometry x="680" y="520" width="78" height="78" as="geometry" />
        </mxCell>
        <mxCell id="fSjYENabkBev0ntUEMhD-32" value="" style="sketch=0;points=[[0,0,0],[0.25,0,0],[0.5,0,0],[0.75,0,0],[1,0,0],[0,1,0],[0.25,1,0],[0.5,1,0],[0.75,1,0],[1,1,0],[0,0.25,0],[0,0.5,0],[0,0.75,0],[1,0.25,0],[1,0.5,0],[1,0.75,0]];outlineConnect=0;fontColor=#232F3E;fillColor=#ED7100;strokeColor=#ffffff;dashed=0;verticalLabelPosition=bottom;verticalAlign=top;align=center;html=1;fontSize=12;fontStyle=0;aspect=fixed;shape=mxgraph.aws4.resourceIcon;resIcon=mxgraph.aws4.ec2;" parent="1" vertex="1">
          <mxGeometry x="680" y="626" width="78" height="78" as="geometry" />
        </mxCell>
        <mxCell id="fSjYENabkBev0ntUEMhD-33" value="" style="sketch=0;points=[[0,0,0],[0.25,0,0],[0.5,0,0],[0.75,0,0],[1,0,0],[0,1,0],[0.25,1,0],[0.5,1,0],[0.75,1,0],[1,1,0],[0,0.25,0],[0,0.5,0],[0,0.75,0],[1,0.25,0],[1,0.5,0],[1,0.75,0]];outlineConnect=0;fontColor=#232F3E;fillColor=#ED7100;strokeColor=#ffffff;dashed=0;verticalLabelPosition=bottom;verticalAlign=top;align=center;html=1;fontSize=12;fontStyle=0;aspect=fixed;shape=mxgraph.aws4.resourceIcon;resIcon=mxgraph.aws4.ec2;" parent="1" vertex="1">
          <mxGeometry x="680" y="760" width="78" height="78" as="geometry" />
        </mxCell>
        <mxCell id="fSjYENabkBev0ntUEMhD-34" style="edgeStyle=orthogonalEdgeStyle;rounded=0;orthogonalLoop=1;jettySize=auto;html=1;entryX=0;entryY=0.5;entryDx=0;entryDy=0;entryPerimeter=0;" parent="1" source="fSjYENabkBev0ntUEMhD-30" target="fSjYENabkBev0ntUEMhD-31" edge="1">
          <mxGeometry relative="1" as="geometry" />
        </mxCell>
        <mxCell id="fSjYENabkBev0ntUEMhD-35" style="edgeStyle=orthogonalEdgeStyle;rounded=0;orthogonalLoop=1;jettySize=auto;html=1;entryX=0;entryY=0.75;entryDx=0;entryDy=0;entryPerimeter=0;" parent="1" source="fSjYENabkBev0ntUEMhD-30" target="fSjYENabkBev0ntUEMhD-32" edge="1">
          <mxGeometry relative="1" as="geometry" />
        </mxCell>
        <mxCell id="fSjYENabkBev0ntUEMhD-36" style="edgeStyle=orthogonalEdgeStyle;rounded=0;orthogonalLoop=1;jettySize=auto;html=1;entryX=0;entryY=0.5;entryDx=0;entryDy=0;entryPerimeter=0;" parent="1" source="fSjYENabkBev0ntUEMhD-30" target="fSjYENabkBev0ntUEMhD-33" edge="1">
          <mxGeometry relative="1" as="geometry" />
        </mxCell>
        <mxCell id="fSjYENabkBev0ntUEMhD-38" style="edgeStyle=orthogonalEdgeStyle;rounded=0;orthogonalLoop=1;jettySize=auto;html=1;" parent="1" source="fSjYENabkBev0ntUEMhD-37" target="fSjYENabkBev0ntUEMhD-30" edge="1">
          <mxGeometry relative="1" as="geometry" />
        </mxCell>
        <mxCell id="fSjYENabkBev0ntUEMhD-37" value="&lt;b&gt;kubectl&lt;/b&gt;" style="ellipse;whiteSpace=wrap;html=1;fillColor=#dae8fc;gradientColor=#7ea6e0;strokeColor=#6c8ebf;" parent="1" vertex="1">
          <mxGeometry x="320" y="620" width="90" height="40" as="geometry" />
        </mxCell>
        <mxCell id="fSjYENabkBev0ntUEMhD-39" value="&lt;b&gt;cluster creation&lt;/b&gt;" style="text;html=1;align=center;verticalAlign=middle;resizable=0;points=[];autosize=1;strokeColor=none;fillColor=none;" parent="1" vertex="1">
          <mxGeometry x="410" y="734" width="110" height="30" as="geometry" />
        </mxCell>
        <mxCell id="fSjYENabkBev0ntUEMhD-42" style="edgeStyle=orthogonalEdgeStyle;rounded=0;orthogonalLoop=1;jettySize=auto;html=1;" parent="1" source="fSjYENabkBev0ntUEMhD-41" target="fSjYENabkBev0ntUEMhD-30" edge="1">
          <mxGeometry relative="1" as="geometry" />
        </mxCell>
        <mxCell id="fSjYENabkBev0ntUEMhD-41" value="&lt;b&gt;eksctl&lt;/b&gt;" style="ellipse;whiteSpace=wrap;html=1;fillColor=#f8cecc;gradientColor=#ea6b66;strokeColor=#b85450;" parent="1" vertex="1">
          <mxGeometry x="320" y="710" width="90" height="40" as="geometry" />
        </mxCell>
        <mxCell id="fSjYENabkBev0ntUEMhD-43" value="&lt;b&gt;cluster interaction&lt;/b&gt;" style="text;html=1;align=center;verticalAlign=middle;resizable=0;points=[];autosize=1;strokeColor=none;fillColor=none;" parent="1" vertex="1">
          <mxGeometry x="410" y="605" width="130" height="30" as="geometry" />
        </mxCell>
        <mxCell id="fSjYENabkBev0ntUEMhD-44" value="&lt;b&gt;WorkStation&lt;/b&gt;" style="text;html=1;align=center;verticalAlign=middle;resizable=0;points=[];autosize=1;strokeColor=none;fillColor=none;" parent="1" vertex="1">
          <mxGeometry x="240" y="600" width="90" height="30" as="geometry" />
        </mxCell>
        <mxCell id="fSjYENabkBev0ntUEMhD-45" value="" style="sketch=0;outlineConnect=0;fontColor=#232F3E;gradientColor=none;fillColor=#ED7100;strokeColor=none;dashed=0;verticalLabelPosition=bottom;verticalAlign=top;align=center;html=1;fontSize=12;fontStyle=0;aspect=fixed;pointerEvents=1;shape=mxgraph.aws4.ecs_copilot_cli;" parent="1" vertex="1">
          <mxGeometry x="252.69" y="658" width="48" height="44" as="geometry" />
        </mxCell>
        <mxCell id="fSjYENabkBev0ntUEMhD-46" value="&lt;b&gt;aws configure&lt;/b&gt;" style="text;html=1;align=center;verticalAlign=middle;resizable=0;points=[];autosize=1;strokeColor=none;fillColor=none;" parent="1" vertex="1">
          <mxGeometry x="210" y="704" width="100" height="30" as="geometry" />
        </mxCell>
        <mxCell id="fSjYENabkBev0ntUEMhD-48" value="&lt;b&gt;ManagedNodeGroup&lt;/b&gt;" style="text;html=1;align=center;verticalAlign=middle;resizable=0;points=[];autosize=1;strokeColor=none;fillColor=none;" parent="1" vertex="1">
          <mxGeometry x="649" y="480" width="140" height="30" as="geometry" />
        </mxCell>
        <mxCell id="eDZCHYKbajmRsSsntgxO-1" style="edgeStyle=orthogonalEdgeStyle;rounded=0;orthogonalLoop=1;jettySize=auto;html=1;entryX=0.5;entryY=0;entryDx=0;entryDy=0;entryPerimeter=0;" edge="1" parent="1" source="fSjYENabkBev0ntUEMhD-22" target="fSjYENabkBev0ntUEMhD-31">
          <mxGeometry relative="1" as="geometry" />
        </mxCell>
        <mxCell id="eDZCHYKbajmRsSsntgxO-2" value="&lt;b&gt;pull image&lt;/b&gt;" style="text;html=1;align=center;verticalAlign=middle;resizable=0;points=[];autosize=1;strokeColor=none;fillColor=none;" vertex="1" parent="1">
          <mxGeometry x="420" y="390" width="80" height="30" as="geometry" />
        </mxCell>
        <mxCell id="eDZCHYKbajmRsSsntgxO-3" value="" style="rounded=0;whiteSpace=wrap;html=1;fillColor=#f8cecc;gradientColor=#ea6b66;strokeColor=#b85450;" vertex="1" parent="1">
          <mxGeometry x="200" y="910" width="240" height="150" as="geometry" />
        </mxCell>
        <mxCell id="eDZCHYKbajmRsSsntgxO-9" style="edgeStyle=orthogonalEdgeStyle;rounded=0;orthogonalLoop=1;jettySize=auto;html=1;" edge="1" parent="1" source="eDZCHYKbajmRsSsntgxO-4">
          <mxGeometry relative="1" as="geometry">
            <mxPoint x="310" y="1020" as="targetPoint" />
          </mxGeometry>
        </mxCell>
        <mxCell id="eDZCHYKbajmRsSsntgxO-4" value="&lt;b&gt;C1&lt;/b&gt;" style="ellipse;whiteSpace=wrap;html=1;aspect=fixed;fillColor=#dae8fc;strokeColor=#6c8ebf;" vertex="1" parent="1">
          <mxGeometry x="220.69" y="940" width="60" height="60" as="geometry" />
        </mxCell>
        <mxCell id="eDZCHYKbajmRsSsntgxO-6" value="&lt;b&gt;C2&lt;/b&gt;" style="ellipse;whiteSpace=wrap;html=1;aspect=fixed;fillColor=#d5e8d4;strokeColor=#82b366;" vertex="1" parent="1">
          <mxGeometry x="340" y="940" width="60" height="60" as="geometry" />
        </mxCell>
        <mxCell id="eDZCHYKbajmRsSsntgxO-7" value="" style="endArrow=none;html=1;rounded=0;exitX=0;exitY=0.75;exitDx=0;exitDy=0;entryX=1;entryY=0.75;entryDx=0;entryDy=0;" edge="1" parent="1" source="eDZCHYKbajmRsSsntgxO-3" target="eDZCHYKbajmRsSsntgxO-3">
          <mxGeometry width="50" height="50" relative="1" as="geometry">
            <mxPoint x="300" y="970" as="sourcePoint" />
            <mxPoint x="350" y="920" as="targetPoint" />
          </mxGeometry>
        </mxCell>
        <mxCell id="eDZCHYKbajmRsSsntgxO-8" value="&lt;b&gt;/var/log/nginx&lt;/b&gt;" style="text;html=1;align=center;verticalAlign=middle;resizable=0;points=[];autosize=1;strokeColor=none;fillColor=none;" vertex="1" parent="1">
          <mxGeometry x="270" y="1030" width="100" height="30" as="geometry" />
        </mxCell>
        <mxCell id="eDZCHYKbajmRsSsntgxO-10" value="" style="outlineConnect=0;dashed=0;verticalLabelPosition=bottom;verticalAlign=top;align=center;html=1;shape=mxgraph.aws3.elasticsearch_service;fillColor=#F58534;gradientColor=none;" vertex="1" parent="1">
          <mxGeometry x="510" y="820" width="67.5" height="81" as="geometry" />
        </mxCell>
        <mxCell id="eDZCHYKbajmRsSsntgxO-11" value="&lt;b&gt;log storage tool&lt;/b&gt;" style="text;html=1;align=center;verticalAlign=middle;resizable=0;points=[];autosize=1;strokeColor=none;fillColor=none;" vertex="1" parent="1">
          <mxGeometry x="590" y="845.5" width="110" height="30" as="geometry" />
        </mxCell>
        <mxCell id="eDZCHYKbajmRsSsntgxO-13" style="edgeStyle=orthogonalEdgeStyle;rounded=0;orthogonalLoop=1;jettySize=auto;html=1;entryX=0;entryY=0.5;entryDx=0;entryDy=0;" edge="1" parent="1" source="eDZCHYKbajmRsSsntgxO-12" target="eDZCHYKbajmRsSsntgxO-4">
          <mxGeometry relative="1" as="geometry" />
        </mxCell>
        <mxCell id="eDZCHYKbajmRsSsntgxO-12" value="" style="html=1;verticalLabelPosition=bottom;align=center;labelBackgroundColor=#ffffff;verticalAlign=top;strokeWidth=2;strokeColor=#0080F0;shadow=0;dashed=0;shape=mxgraph.ios7.icons.user;" vertex="1" parent="1">
          <mxGeometry y="940" width="60" height="60" as="geometry" />
        </mxCell>
        <mxCell id="eDZCHYKbajmRsSsntgxO-14" value="&lt;b&gt;sidecar&lt;/b&gt;" style="text;html=1;align=center;verticalAlign=middle;resizable=0;points=[];autosize=1;strokeColor=none;fillColor=none;" vertex="1" parent="1">
          <mxGeometry x="335" y="990" width="70" height="30" as="geometry" />
        </mxCell>
        <mxCell id="eDZCHYKbajmRsSsntgxO-15" value="" style="endArrow=classic;html=1;rounded=0;entryX=1;entryY=0.5;entryDx=0;entryDy=0;" edge="1" parent="1" target="eDZCHYKbajmRsSsntgxO-6">
          <mxGeometry width="50" height="50" relative="1" as="geometry">
            <mxPoint x="420" y="1020" as="sourcePoint" />
            <mxPoint x="350" y="920" as="targetPoint" />
            <Array as="points">
              <mxPoint x="420" y="970" />
            </Array>
          </mxGeometry>
        </mxCell>
        <mxCell id="eDZCHYKbajmRsSsntgxO-16" style="edgeStyle=orthogonalEdgeStyle;rounded=0;orthogonalLoop=1;jettySize=auto;html=1;entryX=0;entryY=0.5;entryDx=0;entryDy=0;entryPerimeter=0;" edge="1" parent="1" source="eDZCHYKbajmRsSsntgxO-6" target="eDZCHYKbajmRsSsntgxO-10">
          <mxGeometry relative="1" as="geometry">
            <Array as="points">
              <mxPoint x="370" y="861" />
            </Array>
          </mxGeometry>
        </mxCell>
      </root>
    </mxGraphModel>
  </diagram>
</mxfile>
